<svg width="540" height="711" viewBox="0 0 540 711" fill="none" xmlns="http://www.w3.org/2000/svg">
<g id="frame_large_size">
<g id="line_group">
<path id="curve1" d="M266.463 147C266.463 178.119 266.463 244.506 266.463 261.103C266.463 277.7 251.758 280.12 244.406 279.256H142" stroke="url(#paint0_linear)"/>
<path id="curve2" d="M274.407 147C274.407 178.119 274.407 244.506 274.407 261.103C274.407 277.7 289.112 280.12 296.464 279.256H398.87" stroke="url(#paint1_linear)"/>
<path id="curve3" d="M142 287.352C171.252 287.352 233.656 287.352 249.257 287.352C264.858 287.352 267.133 304.559 266.321 313.163L266.321 433" stroke="url(#paint2_linear)"/>
<path id="curve4" d="M274.407 433C274.407 398.769 274.407 325.743 274.407 307.487C274.407 289.23 289.112 286.568 296.464 287.519H398.87" stroke="url(#paint3_linear)"/>
<path id="line2" d="M270.435 147L270.435 433" stroke="url(#paint4_linear)"/>
<path id="line1" d="M142 283.38L398.87 283.38" stroke="url(#paint5_linear)"/>
</g>
<g id="dead_status">
<g id="dead_circle_left">
<circle cx="83.6935" cy="282.694" r="58.6935" fill="black"/>
<circle cx="83.6935" cy="282.694" r="57.6935" stroke="#C6C6C6" stroke-opacity="0.5" stroke-width="2"/>
</g>
<g id="dead_circle_right">
<circle cx="457.694" cy="282.694" r="58.6935" fill="black"/>
<circle cx="457.694" cy="282.694" r="57.6935" stroke="#C6C6C6" stroke-opacity="0.5" stroke-width="2"/>
</g>
<g id="dead_circle_bottom">
<circle cx="270.694" cy="491.694" r="58.6935" fill="black"/>
<circle cx="270.694" cy="491.694" r="57.6935" stroke="#C6C6C6" stroke-opacity="0.5" stroke-width="2"/>
</g>
<g id="dead_circle_top">
<circle cx="270.595" cy="88.6935" r="58.6935" fill="black"/>
<circle cx="270.595" cy="88.6935" r="57.6935" stroke="#C6C6C6" stroke-opacity="0.5" stroke-width="2"/>
</g>
<g id="dead_solar">
<path id="Vector" fill-rule="evenodd" clip-rule="evenodd" d="M254.14 53.2277C257.792 53.2277 260.922 56.3578 260.922 60.2704C260.922 63.9222 257.792 67.0524 254.14 67.0524C250.227 67.0524 247.097 63.9222 247.097 60.2704C247.097 56.3578 250.227 53.2277 254.14 53.2277Z" fill="#C6C6C6" fill-opacity="0.5"/>
<path id="Vector_2" d="M253.097 46.4456C253.097 45.1414 254.923 45.1414 254.923 46.4456V50.3583C254.923 51.6625 253.097 51.6625 253.097 50.3583V46.4456Z" fill="#C6C6C6" fill-opacity="0.5"/>
<path id="Vector_3" d="M243.706 51.1409C242.663 50.0975 243.967 48.7933 245.011 49.8367L247.88 52.7059C248.662 53.4885 247.358 54.7927 246.576 54.0101L243.706 51.1409Z" fill="#C6C6C6" fill-opacity="0.5"/>
<path id="Vector_4" d="M240.315 61.0528C239.011 61.0528 239.011 59.2269 240.315 59.2269H244.228C245.532 59.2269 245.532 61.0528 244.228 61.0528H240.315Z" fill="#C6C6C6" fill-opacity="0.5"/>
<path id="Vector_5" d="M245.011 70.7042C243.967 71.4867 242.663 70.1825 243.706 69.1391L246.576 66.2698C247.358 65.4873 248.662 66.7915 247.88 67.8349L245.011 70.7042Z" fill="#C6C6C6" fill-opacity="0.5"/>
<path id="Vector_6" d="M267.965 59.2269C269.008 59.2269 269.008 61.0528 267.965 61.0528H263.791C262.487 61.0528 262.487 59.2269 263.791 59.2269H267.965Z" fill="#C6C6C6" fill-opacity="0.5"/>
<path id="Vector_7" d="M263.009 49.8367C264.052 48.7933 265.356 50.0975 264.574 51.1409L261.705 54.0101C260.661 54.7927 259.357 53.4885 260.14 52.7059L263.009 49.8367Z" fill="#C6C6C6" fill-opacity="0.5"/>
<path id="Vector_8" fill-rule="evenodd" clip-rule="evenodd" d="M249.344 95.8204H232.128L242.562 85.6475H257.43L249.344 95.8204Z" fill="#C6C6C6" fill-opacity="0.5"/>
<path id="Vector_9" fill-rule="evenodd" clip-rule="evenodd" d="M267.081 95.8204H251.17L258.995 85.6475H272.298L267.081 95.8204Z" fill="#C6C6C6" fill-opacity="0.5"/>
<path id="Vector_10" fill-rule="evenodd" clip-rule="evenodd" d="M285.601 95.8204H268.907L273.863 85.6475H287.949L285.601 95.8204Z" fill="#C6C6C6" fill-opacity="0.5"/>
<path id="Vector_11" fill-rule="evenodd" clip-rule="evenodd" d="M304.382 85.6475L304.642 95.8204H287.427L289.253 85.6475H304.382Z" fill="#C6C6C6" fill-opacity="0.5"/>
<path id="Vector_12" fill-rule="evenodd" clip-rule="evenodd" d="M258.734 84.0826H244.388L250.909 77.8224H263.69L258.734 84.0826Z" fill="#C6C6C6" fill-opacity="0.5"/>
<path id="Vector_13" fill-rule="evenodd" clip-rule="evenodd" d="M273.08 84.0826H260.038L264.994 77.8224H276.471L273.08 84.0826Z" fill="#C6C6C6" fill-opacity="0.5"/>
<path id="Vector_14" fill-rule="evenodd" clip-rule="evenodd" d="M288.209 84.0826H274.646L277.515 77.8224H289.514L288.209 84.0826Z" fill="#C6C6C6" fill-opacity="0.5"/>
<path id="Vector_15" fill-rule="evenodd" clip-rule="evenodd" d="M304.121 77.8224V84.0826H289.774L290.818 77.8224H304.121Z" fill="#C6C6C6" fill-opacity="0.5"/>
<path id="Vector_16" fill-rule="evenodd" clip-rule="evenodd" d="M292.122 71.3014H303.86V76.5183H291.079L292.122 71.3014Z" fill="#C6C6C6" fill-opacity="0.5"/>
<path id="Vector_17" fill-rule="evenodd" clip-rule="evenodd" d="M280.645 71.3014H291.079L289.774 76.5183H278.297L280.645 71.3014Z" fill="#C6C6C6" fill-opacity="0.5"/>
<path id="Vector_18" fill-rule="evenodd" clip-rule="evenodd" d="M269.95 71.3014H279.862L276.993 76.5183H266.038L269.95 71.3014Z" fill="#C6C6C6" fill-opacity="0.5"/>
<path id="Vector_19" fill-rule="evenodd" clip-rule="evenodd" d="M257.691 71.3014H268.907L264.733 76.5183H252.213L257.691 71.3014Z" fill="#C6C6C6" fill-opacity="0.5"/>
</g>
<g id="dead_grid">
<path id="Vector_20" fill-rule="evenodd" clip-rule="evenodd" d="M104.149 249.08C104.094 249.08 104.051 249.08 104.006 249.08C102.598 249.08 101.187 249.072 99.7789 249.086C99.4543 249.089 99.2193 248.8 99.372 248.449C100.427 246.024 101.473 243.596 102.522 241.169C103.068 239.905 103.614 238.642 104.16 237.379C104.253 237.165 104.432 237.057 104.624 237.096C104.833 237.14 104.953 237.303 104.953 237.542C104.954 239.308 104.954 241.074 104.954 242.838C104.954 242.883 104.954 242.928 104.954 242.983C105.006 242.983 105.05 242.983 105.094 242.983C106.498 242.983 107.904 242.983 109.309 242.985C109.562 242.985 109.728 243.085 109.766 243.292C109.783 243.391 109.766 243.512 109.725 243.607C109.101 245.065 108.471 246.52 107.841 247.977C106.878 250.206 105.915 252.433 104.952 254.661C104.84 254.924 104.651 255.028 104.429 254.956C104.269 254.903 104.162 254.767 104.15 254.598C104.148 254.561 104.149 254.522 104.149 254.485C104.149 252.731 104.149 250.977 104.149 249.223C104.149 249.178 104.149 249.135 104.149 249.08Z" fill="#C6C6C6" fill-opacity="0.5"/>
<path id="Vector_21" d="M55.9349 283.225H58.6037V285.852C58.6037 286.575 58.0032 287.166 57.2693 287.166C56.5354 287.166 55.9349 286.575 55.9349 285.852V283.225ZM107.976 285.852C107.976 286.575 108.576 287.166 109.31 287.166C110.044 287.166 110.645 286.575 110.645 285.852V283.225H107.976V285.852ZM71.2403 280.599L71.9609 273.828L56.3953 280.599H71.2403ZM94.6188 273.828L95.3393 280.599H110.184L94.6188 273.828ZM57.2693 269.435C58.0032 269.435 58.6037 268.844 58.6037 268.122V265.495H55.9349V268.122C55.9349 268.844 56.5354 269.435 57.2693 269.435ZM107.976 265.495V268.122C107.976 268.844 108.576 269.435 109.31 269.435C110.044 269.435 110.645 268.844 110.645 268.122V265.495H107.976ZM73.9491 255.231L56.3953 262.868H73.1352L73.9491 255.231ZM110.184 262.868L92.6305 255.231L93.4445 262.868H110.184ZM72.2745 296.011L81.315 287.868L73.8624 281.157L72.2745 296.011ZM91.89 278.34L83.2898 270.591L74.6897 278.34L83.2898 286.089L91.89 278.34ZM92.7173 281.157L85.2647 287.868L94.3052 296.011L92.7173 281.157ZM75.7172 263.775L74.5296 274.925L81.315 268.811L75.7172 263.775ZM76.0708 260.531L83.2898 267.032L90.5089 260.531L90.1286 256.958H76.4511L76.0708 260.531ZM85.2647 268.811L92.0501 274.925L90.8558 263.775L85.2647 268.811ZM77.1517 250.391L76.7313 254.331H89.8483L89.428 250.391H77.1517ZM91.9633 243.825H74.6163V247.765H91.9633V243.825ZM99.3025 297.672H92.1969L83.2898 289.648L74.3828 297.672H67.2772C66.5433 297.672 65.9428 298.264 65.9428 298.986C65.9428 299.708 66.5433 300.299 67.2772 300.299H99.3025C100.036 300.299 100.637 299.708 100.637 298.986C100.637 298.264 100.036 297.672 99.3025 297.672Z" fill="#C6C6C6" fill-opacity="0.5"/>
</g>
<g id="dead_home">
<path id="Vector_22" fill-rule="evenodd" clip-rule="evenodd" d="M476.834 269.667V288.963C476.834 291.29 474.929 293.194 472.602 293.194H463.63C463.326 293.194 463.079 292.947 463.079 292.643V276.826C463.079 276.523 462.831 276.275 462.528 276.275H453.05C452.746 276.275 452.499 276.523 452.499 276.826V292.643C452.499 292.947 452.251 293.194 451.947 293.194H442.976C440.649 293.194 438.744 291.29 438.744 288.963V269.667H431.678C431.177 269.667 430.934 269.055 431.302 268.714L457.412 244.375C457.624 244.177 457.953 244.177 458.165 244.375L468.37 253.887V249.334C468.37 249.03 468.618 248.783 468.921 248.783H474.167C474.471 248.783 474.718 249.03 474.718 249.334V259.804L484.277 268.714C484.644 269.055 484.4 269.667 483.9 269.667H476.834V269.667Z" fill="#C6C6C6" fill-opacity="0.5"/>
<path id="Vector_23" d="M456.659 265.062L456.554 265.55L456.659 265.062ZM456.659 265.062L456.171 264.956M456.659 265.062L456.171 264.956M456.171 264.956L456.17 264.956L456.17 264.956L456.169 264.956L456.169 264.956L456.168 264.955L456.168 264.955L456.167 264.955L456.167 264.955L456.166 264.955L456.166 264.955L456.165 264.955L456.165 264.955L456.164 264.955L456.164 264.955L456.164 264.954L456.163 264.954L456.163 264.954L456.162 264.954L456.162 264.954L456.161 264.954L456.161 264.954L456.16 264.954L456.16 264.954L456.159 264.954L456.159 264.953L456.158 264.953L456.158 264.953L456.157 264.953L456.157 264.953L456.156 264.953L456.156 264.953L456.155 264.953L456.155 264.953L456.155 264.953L456.154 264.952L456.154 264.952L456.153 264.952L456.153 264.952L456.152 264.952L456.152 264.952L456.151 264.952L456.151 264.952L456.15 264.952L456.15 264.951L456.149 264.951L456.149 264.951L456.148 264.951L456.148 264.951L456.148 264.951L456.147 264.951L456.147 264.951L456.146 264.951L456.146 264.951L456.145 264.95L456.145 264.95L456.144 264.95L456.144 264.95L456.143 264.95L456.143 264.95L456.142 264.95L456.142 264.95L456.142 264.95L456.141 264.95L456.141 264.949L456.14 264.949L456.14 264.949L456.139 264.949L456.139 264.949L456.138 264.949L456.138 264.949L456.137 264.949L456.137 264.949L456.136 264.949L456.136 264.948L456.136 264.948L456.135 264.948L456.135 264.948L456.134 264.948L456.134 264.948L456.133 264.948L456.133 264.948L456.132 264.948L456.132 264.948L456.131 264.948L456.131 264.947L456.131 264.947L456.13 264.947L456.13 264.947L456.129 264.947L456.129 264.947L456.128 264.947L456.128 264.947L456.127 264.947L456.127 264.947L456.126 264.946L456.126 264.946L456.126 264.946L456.125 264.946L456.125 264.946L456.124 264.946L456.124 264.946L456.123 264.946L456.123 264.946L456.122 264.946L456.122 264.945L456.122 264.945L456.121 264.945L456.121 264.945L456.12 264.945L456.12 264.945L456.119 264.945L456.119 264.945L456.118 264.945L456.118 264.945L456.118 264.944L456.117 264.944L456.117 264.944L456.116 264.944L456.116 264.944L456.115 264.944L456.115 264.944L456.114 264.944L456.114 264.944L456.114 264.944L456.113 264.944L456.113 264.943L456.112 264.943L456.112 264.943L456.111 264.943L456.111 264.943L456.11 264.943L456.11 264.943L456.11 264.943L456.109 264.943L456.109 264.943L456.108 264.942L456.108 264.942L456.107 264.942L456.107 264.942L456.107 264.942L456.106 264.942L456.106 264.942L456.105 264.942L456.105 264.942L456.104 264.942L456.104 264.942L456.104 264.941L456.103 264.941L456.103 264.941L456.102 264.941L456.102 264.941L456.101 264.941L456.101 264.941L456.1 264.941L456.1 264.941L456.1 264.941L456.099 264.941L456.099 264.94L456.098 264.94L456.098 264.94L456.097 264.94L456.097 264.94L456.097 264.94L456.096 264.94L456.096 264.94L456.095 264.94L456.095 264.94L456.094 264.939L456.094 264.939L456.094 264.939L456.093 264.939L456.093 264.939L456.092 264.939L456.092 264.939L456.091 264.939L456.091 264.939L456.091 264.939L456.09 264.939L456.09 264.938L456.089 264.938L456.089 264.938L456.088 264.938L456.088 264.938L456.088 264.938L456.087 264.938L456.087 264.938L456.086 264.938L456.086 264.938L456.085 264.938L456.085 264.937L456.085 264.937L456.084 264.937L456.084 264.937L456.083 264.937L456.083 264.937L456.082 264.937L456.082 264.937L456.082 264.937L456.081 264.937L456.081 264.937L456.08 264.936L456.08 264.936L456.08 264.936L456.079 264.936L456.079 264.936L456.078 264.936L456.078 264.936L456.077 264.936L456.077 264.936L456.077 264.936L456.076 264.936L456.076 264.935L456.075 264.935L456.075 264.935L456.075 264.935L456.074 264.935L456.074 264.935L456.073 264.935L456.073 264.935L456.072 264.935L456.072 264.935L456.072 264.935L456.071 264.934L456.071 264.934L456.07 264.934L456.07 264.934L456.069 264.934L456.069 264.934L456.069 264.934L456.068 264.934L456.068 264.934L456.067 264.934L456.067 264.934L456.067 264.933L456.066 264.933L456.066 264.933L456.065 264.933L456.065 264.933L456.065 264.933L456.064 264.933L456.064 264.933L456.063 264.933L456.063 264.933L456.062 264.933L456.062 264.932L456.062 264.932L456.061 264.932L456.061 264.932L456.06 264.932L456.06 264.932L456.06 264.932L456.059 264.932L456.059 264.932L456.058 264.932L456.058 264.932L456.058 264.931L456.057 264.931L456.057 264.931L456.056 264.931L456.056 264.931L456.055 264.931L456.055 264.931L456.055 264.931L456.054 264.931L456.054 264.931L456.053 264.931L456.053 264.931L456.053 264.93L456.052 264.93L456.052 264.93L456.051 264.93L456.051 264.93L456.051 264.93L456.05 264.93L456.05 264.93L456.049 264.93L456.049 264.93L456.049 264.93L456.048 264.929L456.048 264.929L456.047 264.929L456.047 264.929L456.046 264.929L456.046 264.929L456.046 264.929L456.045 264.929L456.045 264.929L456.044 264.929L456.044 264.929L456.044 264.928L456.043 264.928L456.043 264.928L456.042 264.928L456.042 264.928L456.042 264.928L456.041 264.928L456.041 264.928L456.04 264.928L456.04 264.928L456.04 264.928L456.039 264.928L456.039 264.927L456.038 264.927L456.038 264.927L456.038 264.927L456.037 264.927L456.037 264.927L456.036 264.927L456.036 264.927L456.036 264.927L456.035 264.927L456.035 264.927L456.034 264.926L456.034 264.926L456.034 264.926L456.033 264.926L456.033 264.926L456.032 264.926L456.032 264.926L456.032 264.926L456.031 264.926L456.031 264.926L456.03 264.926L456.03 264.926L456.03 264.925L456.029 264.925L456.029 264.925L456.028 264.925L456.028 264.925L456.028 264.925L456.027 264.925L456.027 264.925L456.026 264.925L456.026 264.925L456.026 264.925L456.025 264.924L456.025 264.924L456.024 264.924L456.024 264.924L456.024 264.924L456.023 264.924L456.023 264.924L456.022 264.924L456.022 264.924L456.022 264.924L456.021 264.924L456.021 264.924L456.02 264.923L456.02 264.923L456.02 264.923L456.019 264.923L456.019 264.923L456.018 264.923L456.018 264.923L456.018 264.923L456.017 264.923L456.017 264.923L456.016 264.923L456.016 264.923L456.016 264.922L456.015 264.922L456.015 264.922L456.014 264.922L456.014 264.922L456.014 264.922L456.013 264.922L456.013 264.922L456.012 264.922L456.012 264.922L456.012 264.922L456.011 264.921L456.011 264.921L456.01 264.921L456.01 264.921L456.01 264.921L456.009 264.921L456.009 264.921L456.008 264.921L456.008 264.921L456.008 264.921L456.007 264.921L456.007 264.921L456.007 264.92L456.006 264.92L456.006 264.92L456.005 264.92L456.005 264.92L456.005 264.92L456.004 264.92L456.004 264.92L456.003 264.92L456.003 264.92L456.003 264.92L456.002 264.92L456.002 264.919L456.001 264.919L456.001 264.919L456.001 264.919L456 264.919L456 264.919L455.999 264.919L455.999 264.919L455.999 264.919L455.998 264.919L455.998 264.919L455.997 264.918L455.997 264.918L455.997 264.918L455.996 264.918L455.996 264.918L455.996 264.918L455.995 264.918L455.995 264.918L455.994 264.918L455.994 264.918L455.994 264.918L455.993 264.918L455.993 264.917L455.992 264.917L455.992 264.917L455.992 264.917L455.991 264.917L455.991 264.917L455.99 264.917L455.99 264.917L455.99 264.917L455.989 264.917L455.989 264.917L455.988 264.917L455.988 264.916L455.988 264.916L455.987 264.916L455.987 264.916L455.986 264.916L455.986 264.916L455.986 264.916L455.985 264.916L455.985 264.916L455.985 264.916L455.984 264.916L455.984 264.916L455.983 264.915L455.983 264.915L455.983 264.915L455.982 264.915L455.982 264.915L455.981 264.915L455.981 264.915L455.981 264.915L455.98 264.915L455.98 264.915L455.979 264.915L455.979 264.915L455.979 264.914L455.978 264.914L455.978 264.914L455.977 264.914L455.977 264.914L455.977 264.914L455.976 264.914L455.976 264.914L455.976 264.914L455.975 264.914L455.975 264.914L455.974 264.913L455.974 264.913L455.974 264.913L455.973 264.913L455.973 264.913L455.972 264.913L455.972 264.913L455.972 264.913L455.971 264.913L455.971 264.913L455.97 264.913L455.97 264.913L455.97 264.912L455.969 264.912L455.969 264.912L455.969 264.912L455.968 264.912L455.968 264.912L455.967 264.912L455.967 264.912L455.967 264.912L455.966 264.912L455.966 264.912L455.965 264.912L455.965 264.911L455.965 264.911L455.964 264.911L455.964 264.911L455.963 264.911L455.963 264.911L455.963 264.911L455.962 264.911L455.962 264.911L455.961 264.911L455.961 264.911L455.961 264.911L455.96 264.91L455.96 264.91L455.96 264.91L455.959 264.91L455.959 264.91L455.958 264.91L455.958 264.91L455.958 264.91L455.957 264.91L455.957 264.91L455.956 264.91L455.956 264.91C455.416 264.793 454.875 264.675 454.333 264.557C452.76 264.214 451.183 263.87 449.604 263.545C449.511 263.526 449.469 263.475 449.454 263.439C449.443 263.411 449.426 263.339 449.511 263.22C451.356 260.625 453.194 258.024 455.031 255.424C455.568 254.664 456.105 253.905 456.642 253.145L456.642 253.145M456.171 264.956L456.642 253.145M456.642 253.145C457.149 252.428 457.657 251.71 458.164 250.993C458.893 249.962 459.622 248.931 460.35 247.9C460.407 247.821 460.457 247.794 460.48 247.786C460.497 247.779 460.51 247.779 460.53 247.787C460.574 247.808 460.585 247.827 460.59 247.839C460.598 247.856 460.613 247.908 460.59 248.013L460.59 248.013M456.642 253.145L460.59 248.013M460.59 248.013C460.009 250.705 459.427 253.396 458.844 256.086L458.844 256.086L458.844 256.087L458.844 256.087L458.844 256.087L458.844 256.088L458.844 256.088L458.844 256.089L458.844 256.089L458.844 256.089L458.844 256.09L458.844 256.09L458.843 256.091L458.843 256.091L458.843 256.091L458.843 256.092L458.843 256.092L458.843 256.093L458.843 256.093L458.843 256.093L458.843 256.094L458.843 256.094L458.843 256.095L458.842 256.095L458.842 256.095L458.842 256.096L458.842 256.096L458.842 256.097L458.842 256.097L458.842 256.097L458.842 256.098L458.842 256.098L458.842 256.099L458.842 256.099L458.842 256.099L458.841 256.1L458.841 256.1L458.841 256.101L458.841 256.101L458.841 256.101L458.841 256.102L458.841 256.102L458.841 256.103L458.841 256.103L458.841 256.103L458.841 256.104L458.84 256.104L458.84 256.105L458.84 256.105L458.84 256.105L458.84 256.106L458.84 256.106L458.84 256.107L458.84 256.107L458.84 256.107L458.84 256.108L458.84 256.108L458.84 256.109L458.839 256.109L458.839 256.11L458.839 256.11L458.839 256.11L458.839 256.111L458.839 256.111L458.839 256.112L458.839 256.112L458.839 256.112L458.839 256.113L458.839 256.113L458.838 256.114L458.838 256.114L458.838 256.114L458.838 256.115L458.838 256.115L458.838 256.116L458.838 256.116L458.838 256.116L458.838 256.117L458.838 256.117L458.838 256.118L458.838 256.118L458.837 256.118L458.837 256.119L458.837 256.119L458.837 256.12L458.837 256.12L458.837 256.12L458.837 256.121L458.837 256.121L458.837 256.122L458.837 256.122L458.837 256.122L458.836 256.123L458.836 256.123L458.836 256.124L458.836 256.124L458.836 256.124L458.836 256.125L458.836 256.125L458.836 256.126L458.836 256.126L458.836 256.126L458.836 256.127L458.835 256.127L458.835 256.128L458.835 256.128L458.835 256.128L458.835 256.129L458.835 256.129L458.835 256.13L458.835 256.13L458.835 256.13L458.835 256.131L458.835 256.131L458.835 256.132L458.834 256.132L458.834 256.133L458.834 256.133L458.834 256.133L458.834 256.134L458.834 256.134L458.834 256.135L458.834 256.135L458.834 256.135L458.834 256.136L458.834 256.136L458.833 256.137L458.833 256.137L458.833 256.137L458.833 256.138L458.833 256.138L458.833 256.139L458.833 256.139L458.833 256.139L458.833 256.14L458.833 256.14L458.833 256.141L458.832 256.141L458.832 256.141L458.832 256.142L458.832 256.142L458.832 256.143L458.832 256.143L458.832 256.144L458.832 256.144L458.832 256.144L458.832 256.145L458.832 256.145L458.832 256.146L458.831 256.146L458.831 256.146L458.831 256.147L458.831 256.147L458.831 256.148L458.831 256.148L458.831 256.148L458.831 256.149L458.831 256.149L458.831 256.15L458.831 256.15L458.83 256.15L458.83 256.151L458.83 256.151L458.83 256.152L458.83 256.152L458.83 256.153L458.83 256.153L458.83 256.153L458.83 256.154L458.83 256.154L458.83 256.155L458.829 256.155L458.829 256.155L458.829 256.156L458.829 256.156L458.829 256.157L458.829 256.157L458.829 256.157L458.829 256.158L458.829 256.158L458.829 256.159L458.829 256.159L458.829 256.16L458.828 256.16L458.828 256.16L458.828 256.161L458.828 256.161L458.828 256.162L458.828 256.162L458.828 256.162L458.828 256.163L458.828 256.163L458.828 256.164L458.828 256.164L458.827 256.164L458.827 256.165L458.827 256.165L458.827 256.166L458.827 256.166L458.827 256.167L458.827 256.167L458.827 256.167L458.827 256.168L458.827 256.168L458.827 256.169L458.826 256.169L458.826 256.169L458.826 256.17L458.826 256.17L458.826 256.171L458.826 256.171L458.826 256.172L458.826 256.172L458.826 256.172L458.826 256.173L458.826 256.173L458.825 256.174L458.825 256.174L458.825 256.174L458.825 256.175L458.825 256.175L458.825 256.176L458.825 256.176L458.825 256.177L458.825 256.177L458.825 256.177L458.825 256.178L458.824 256.178L458.824 256.179L458.824 256.179L458.824 256.18L458.824 256.18L458.824 256.18L458.824 256.181L458.824 256.181L458.824 256.182L458.824 256.182L458.824 256.182L458.823 256.183L458.823 256.183L458.823 256.184L458.823 256.184L458.823 256.185L458.823 256.185L458.823 256.185L458.823 256.186L458.823 256.186L458.823 256.187L458.823 256.187L458.822 256.188L458.822 256.188L458.822 256.188L458.822 256.189L458.822 256.189L458.822 256.19L458.822 256.19L458.822 256.19L458.822 256.191L458.822 256.191L458.822 256.192L458.821 256.192L458.821 256.193L458.821 256.193L458.821 256.193L458.821 256.194L458.821 256.194L458.821 256.195L458.821 256.195L458.821 256.196L458.821 256.196L458.821 256.196L458.82 256.197L458.82 256.197L458.82 256.198L458.82 256.198L458.82 256.199L458.82 256.199L458.82 256.199L458.82 256.2L458.82 256.2L458.82 256.201L458.819 256.201L458.819 256.202L458.819 256.202L458.819 256.202L458.819 256.203L458.819 256.203L458.819 256.204L458.819 256.204L458.819 256.205L458.819 256.205L458.819 256.205L458.818 256.206L458.818 256.206L458.818 256.207L458.818 256.207L458.818 256.208L458.818 256.208L458.818 256.208L458.818 256.209L458.818 256.209L458.818 256.21L458.818 256.21L458.817 256.211L458.817 256.211L458.817 256.212L458.817 256.212L458.817 256.212L458.817 256.213L458.817 256.213L458.817 256.214L458.817 256.214L458.817 256.215L458.816 256.215L458.816 256.215L458.816 256.216L458.816 256.216L458.816 256.217L458.816 256.217L458.816 256.218L458.816 256.218L458.816 256.218L458.816 256.219L458.816 256.219L458.815 256.22L458.815 256.22L458.815 256.221L458.815 256.221L458.815 256.222L458.815 256.222L458.815 256.222L458.815 256.223L458.815 256.223L458.815 256.224L458.815 256.224L458.814 256.225L458.814 256.225L458.814 256.226L458.814 256.226L458.814 256.226L458.814 256.227L458.814 256.227L458.814 256.228L458.814 256.228L458.814 256.229L458.813 256.229L458.813 256.23L458.813 256.23L458.813 256.23L458.813 256.231L458.813 256.231L458.813 256.232L458.813 256.232L458.813 256.233L458.813 256.233L458.812 256.234L458.812 256.234L458.812 256.234L458.812 256.235L458.812 256.235L458.812 256.236L458.812 256.236L458.812 256.237L458.812 256.237L458.812 256.238L458.812 256.238L458.811 256.238L458.811 256.239L458.811 256.239L458.811 256.24L458.811 256.24L458.811 256.241L458.811 256.241L458.811 256.242L458.811 256.242L458.811 256.242L458.81 256.243L458.81 256.243L458.81 256.244L458.81 256.244L458.81 256.245L458.81 256.245L458.81 256.246L458.81 256.246L458.81 256.247L458.81 256.247L458.809 256.247L458.809 256.248L458.809 256.248L458.809 256.249L458.809 256.249L458.809 256.25L458.809 256.25L458.809 256.251L458.809 256.251L458.809 256.252L458.808 256.252L458.808 256.252L458.808 256.253L458.808 256.253L458.808 256.254L458.808 256.254L458.808 256.255L458.808 256.255L458.808 256.256L458.808 256.256L458.807 256.257L458.807 256.257L458.807 256.258L458.807 256.258L458.807 256.258L458.807 256.259L458.807 256.259L458.807 256.26L458.807 256.26L458.807 256.261L458.806 256.261L458.806 256.262L458.806 256.262L458.806 256.263L458.806 256.263L458.806 256.264L458.806 256.264L458.806 256.264L458.806 256.265L458.806 256.265L458.805 256.266L458.805 256.266L458.805 256.267L458.805 256.267L458.805 256.268L458.805 256.268L458.805 256.269L458.805 256.269L458.805 256.27L458.805 256.27L458.804 256.271L458.804 256.271L458.804 256.271L458.804 256.272L458.804 256.272L458.804 256.273L458.804 256.273L458.804 256.274L458.804 256.274L458.804 256.275L458.803 256.275L458.803 256.276L458.803 256.276L458.803 256.277L458.803 256.277L458.803 256.278L458.803 256.278L458.803 256.279L458.803 256.279L458.803 256.279L458.802 256.28L458.802 256.28L458.802 256.281L458.802 256.281L458.802 256.282L458.802 256.282L458.802 256.283L458.802 256.283L458.802 256.284L458.801 256.284L458.801 256.285L458.801 256.285L458.801 256.286L458.801 256.286L458.801 256.287L458.801 256.287L458.801 256.288L458.801 256.288L458.801 256.289L458.8 256.289L458.8 256.29L458.8 256.29L458.8 256.291L458.8 256.291L458.8 256.291L458.8 256.292L458.8 256.292L458.8 256.293L458.8 256.293L458.799 256.294L458.799 256.294L458.799 256.295L458.799 256.295L458.799 256.296L458.799 256.296L458.799 256.297L458.799 256.297L458.799 256.298L458.798 256.298L458.798 256.299L458.798 256.299L458.798 256.3L458.798 256.3L458.798 256.301L458.798 256.301L458.798 256.302L458.798 256.302L458.798 256.303L458.797 256.303L458.797 256.304L458.797 256.304L458.797 256.305L458.797 256.305L458.797 256.306L458.797 256.306L458.797 256.307L458.797 256.307L458.691 256.796M460.59 248.013L458.691 256.796M458.691 256.796L459.179 256.902M458.691 256.796L459.179 256.902M459.179 256.902L459.18 256.902L459.18 256.902L459.181 256.902L459.181 256.902L459.182 256.902L459.182 256.902L459.183 256.902L459.183 256.902L459.184 256.902L459.184 256.903L459.184 256.903L459.185 256.903L459.185 256.903L459.186 256.903L459.186 256.903L459.187 256.903L459.187 256.903L459.188 256.903L459.188 256.903L459.188 256.904L459.189 256.904L459.189 256.904L459.19 256.904L459.19 256.904L459.191 256.904L459.191 256.904L459.192 256.904L459.192 256.904L459.193 256.904L459.193 256.905L459.193 256.905L459.194 256.905L459.194 256.905L459.195 256.905L459.195 256.905L459.196 256.905L459.196 256.905L459.197 256.905L459.197 256.905L459.197 256.906L459.198 256.906L459.198 256.906L459.199 256.906L459.199 256.906L459.2 256.906L459.2 256.906L459.201 256.906L459.201 256.906L459.201 256.906L459.202 256.906L459.202 256.907L459.203 256.907L459.203 256.907L459.204 256.907L459.204 256.907L459.205 256.907L459.205 256.907L459.205 256.907L459.206 256.907L459.206 256.907L459.207 256.908L459.207 256.908L459.208 256.908L459.208 256.908L459.209 256.908L459.209 256.908L459.209 256.908L459.21 256.908L459.21 256.908L459.211 256.908L459.211 256.908L459.212 256.909L459.212 256.909L459.212 256.909L459.213 256.909L459.213 256.909L459.214 256.909L459.214 256.909L459.215 256.909L459.215 256.909L459.216 256.909L459.216 256.91L459.216 256.91L459.217 256.91L459.217 256.91L459.218 256.91L459.218 256.91L459.219 256.91L459.219 256.91L459.219 256.91L459.22 256.91L459.22 256.91L459.221 256.911L459.221 256.911L459.222 256.911L459.222 256.911L459.222 256.911L459.223 256.911L459.223 256.911L459.224 256.911L459.224 256.911L459.225 256.911L459.225 256.911L459.225 256.912L459.226 256.912L459.226 256.912L459.227 256.912L459.227 256.912L459.228 256.912L459.228 256.912L459.228 256.912L459.229 256.912L459.229 256.912L459.23 256.912L459.23 256.913L459.231 256.913L459.231 256.913L459.231 256.913L459.232 256.913L459.232 256.913L459.233 256.913L459.233 256.913L459.234 256.913L459.234 256.913L459.234 256.914L459.235 256.914L459.235 256.914L459.236 256.914L459.236 256.914L459.237 256.914L459.237 256.914L459.237 256.914L459.238 256.914L459.238 256.914L459.239 256.914L459.239 256.915L459.24 256.915L459.24 256.915L459.24 256.915L459.241 256.915L459.241 256.915L459.242 256.915L459.242 256.915L459.242 256.915L459.243 256.915L459.243 256.915L459.244 256.916L459.244 256.916L459.245 256.916L459.245 256.916L459.245 256.916L459.246 256.916L459.246 256.916L459.247 256.916L459.247 256.916L459.248 256.916L459.248 256.916L459.248 256.917L459.249 256.917L459.249 256.917L459.25 256.917L459.25 256.917L459.25 256.917L459.251 256.917L459.251 256.917L459.252 256.917L459.252 256.917L459.253 256.917L459.253 256.918L459.253 256.918L459.254 256.918L459.254 256.918L459.255 256.918L459.255 256.918L459.255 256.918L459.256 256.918L459.256 256.918L459.257 256.918L459.257 256.918L459.258 256.919L459.258 256.919L459.258 256.919L459.259 256.919L459.259 256.919L459.26 256.919L459.26 256.919L459.26 256.919L459.261 256.919L459.261 256.919L459.262 256.919L459.262 256.919L459.263 256.92L459.263 256.92L459.263 256.92L459.264 256.92L459.264 256.92L459.265 256.92L459.265 256.92L459.265 256.92L459.266 256.92L459.266 256.92L459.267 256.92L459.267 256.921L459.267 256.921L459.268 256.921L459.268 256.921L459.269 256.921L459.269 256.921L459.269 256.921L459.27 256.921L459.27 256.921L459.271 256.921L459.271 256.921L459.272 256.922L459.272 256.922L459.272 256.922L459.273 256.922L459.273 256.922L459.274 256.922L459.274 256.922L459.274 256.922L459.275 256.922L459.275 256.922L459.276 256.922L459.276 256.923L459.276 256.923L459.277 256.923L459.277 256.923L459.278 256.923L459.278 256.923L459.278 256.923L459.279 256.923L459.279 256.923L459.28 256.923L459.28 256.923L459.281 256.923L459.281 256.924L459.281 256.924L459.282 256.924L459.282 256.924L459.283 256.924L459.283 256.924L459.283 256.924L459.284 256.924L459.284 256.924L459.285 256.924L459.285 256.924L459.285 256.925L459.286 256.925L459.286 256.925L459.287 256.925L459.287 256.925L459.287 256.925L459.288 256.925L459.288 256.925L459.289 256.925L459.289 256.925L459.289 256.925L459.29 256.925L459.29 256.926L459.291 256.926L459.291 256.926L459.291 256.926L459.292 256.926L459.292 256.926L459.293 256.926L459.293 256.926L459.293 256.926L459.294 256.926L459.294 256.926L459.295 256.927L459.295 256.927L459.295 256.927L459.296 256.927L459.296 256.927L459.297 256.927L459.297 256.927L459.297 256.927L459.298 256.927L459.298 256.927L459.299 256.927L459.299 256.927L459.299 256.928L459.3 256.928L459.3 256.928L459.301 256.928L459.301 256.928L459.301 256.928L459.302 256.928L459.302 256.928L459.303 256.928L459.303 256.928L459.303 256.928L459.304 256.929L459.304 256.929L459.305 256.929L459.305 256.929L459.305 256.929L459.306 256.929L459.306 256.929L459.307 256.929L459.307 256.929L459.307 256.929L459.308 256.929L459.308 256.929L459.309 256.93L459.309 256.93L459.309 256.93L459.31 256.93L459.31 256.93L459.311 256.93L459.311 256.93L459.311 256.93L459.312 256.93L459.312 256.93L459.312 256.93L459.313 256.93L459.313 256.931L459.314 256.931L459.314 256.931L459.314 256.931L459.315 256.931L459.315 256.931L459.316 256.931L459.316 256.931L459.316 256.931L459.317 256.931L459.317 256.931L459.318 256.932L459.318 256.932L459.318 256.932L459.319 256.932L459.319 256.932L459.32 256.932L459.32 256.932L459.32 256.932L459.321 256.932L459.321 256.932L459.322 256.932L459.322 256.932L459.322 256.933L459.323 256.933L459.323 256.933L459.324 256.933L459.324 256.933L459.324 256.933L459.325 256.933L459.325 256.933L459.325 256.933L459.326 256.933L459.326 256.933L459.327 256.933L459.327 256.934L459.327 256.934L459.328 256.934L459.328 256.934L459.329 256.934L459.329 256.934L459.329 256.934L459.33 256.934L459.33 256.934L459.331 256.934L459.331 256.934L459.331 256.934L459.332 256.935L459.332 256.935L459.333 256.935L459.333 256.935L459.333 256.935L459.334 256.935L459.334 256.935L459.334 256.935L459.335 256.935L459.335 256.935L459.336 256.935L459.336 256.936L459.336 256.936L459.337 256.936L459.337 256.936L459.338 256.936L459.338 256.936L459.338 256.936L459.339 256.936L459.339 256.936L459.34 256.936L459.34 256.936L459.34 256.936L459.341 256.937L459.341 256.937L459.341 256.937L459.342 256.937L459.342 256.937L459.343 256.937L459.343 256.937L459.343 256.937L459.344 256.937L459.344 256.937L459.345 256.937L459.345 256.937L459.345 256.938L459.346 256.938L459.346 256.938L459.347 256.938L459.347 256.938L459.347 256.938L459.348 256.938L459.348 256.938L459.348 256.938L459.349 256.938L459.349 256.938L459.35 256.938L459.35 256.939L459.35 256.939L459.351 256.939L459.351 256.939L459.352 256.939L459.352 256.939L459.352 256.939L459.353 256.939L459.353 256.939L459.353 256.939L459.354 256.939L459.354 256.939L459.355 256.94L459.355 256.94L459.355 256.94L459.356 256.94L459.356 256.94L459.357 256.94L459.357 256.94L459.357 256.94L459.358 256.94L459.358 256.94L459.359 256.94L459.359 256.94L459.359 256.941L459.36 256.941L459.36 256.941L459.36 256.941L459.361 256.941L459.361 256.941L459.362 256.941L459.362 256.941L459.362 256.941L459.363 256.941L459.363 256.941L459.364 256.941L459.364 256.942L459.364 256.942L459.365 256.942L459.365 256.942L459.365 256.942L459.366 256.942L459.366 256.942L459.367 256.942L459.367 256.942L459.367 256.942L459.368 256.942L459.368 256.942L459.369 256.943L459.369 256.943L459.369 256.943L459.37 256.943L459.37 256.943L459.37 256.943L459.371 256.943L459.371 256.943L459.372 256.943L459.372 256.943L459.372 256.943L459.373 256.943L459.373 256.944L459.374 256.944L459.374 256.944L459.374 256.944L459.375 256.944L459.375 256.944L459.375 256.944L459.376 256.944L459.376 256.944L459.377 256.944L459.377 256.944L459.377 256.944L459.378 256.945L459.378 256.945L459.379 256.945L459.379 256.945L459.379 256.945L459.38 256.945L459.38 256.945L459.38 256.945L459.381 256.945L459.381 256.945L459.382 256.945L459.382 256.945L459.382 256.946L459.383 256.946L459.383 256.946L459.384 256.946L459.384 256.946L459.384 256.946L459.385 256.946L459.385 256.946L459.385 256.946L459.386 256.946L459.386 256.946L459.387 256.946L459.387 256.947L459.387 256.947L459.388 256.947L459.388 256.947L459.389 256.947C461.497 257.403 463.606 257.86 465.714 258.319L465.715 258.319M459.179 256.902L465.715 258.319M465.715 258.319C465.846 258.347 465.892 258.386 465.901 258.395C465.902 258.396 465.902 258.396 465.903 258.397L465.903 258.397C465.903 258.398 465.903 258.4 465.904 258.402C465.905 258.407 465.905 258.415 465.905 258.428L465.905 258.429M465.715 258.319L465.905 258.429M465.905 258.429C465.903 258.478 465.875 258.565 465.832 258.625L465.831 258.626M465.905 258.429L465.831 258.626M465.831 258.626C464.581 260.408 463.324 262.184 462.066 263.961C461.897 264.199 461.729 264.436 461.561 264.674L461.561 264.674M465.831 258.626L461.561 264.674M461.561 264.674C459.386 267.75 457.213 270.824 455.039 273.898L455.019 273.925L455.018 273.927M461.561 264.674L455.018 273.927M455.018 273.927C454.931 274.051 454.87 274.077 454.857 274.081M455.018 273.927L454.857 274.081M454.857 274.081C454.852 274.083 454.85 274.083 454.847 274.082M454.857 274.081L454.847 274.082M454.847 274.082C454.842 274.082 454.826 274.079 454.799 274.063M454.847 274.082L454.799 274.063M454.799 274.063C454.754 274.036 454.731 273.995 454.739 273.932C454.743 273.909 454.747 273.891 454.753 273.863C454.758 273.844 454.763 273.822 454.769 273.791L454.773 273.775L454.776 273.76L454.78 273.744L454.783 273.728L454.786 273.713L454.79 273.697L454.793 273.681L454.797 273.666L454.8 273.65L454.803 273.634L454.807 273.619L454.81 273.603L454.813 273.587L454.817 273.572L454.82 273.556L454.824 273.54L454.827 273.525L454.83 273.509L454.834 273.493L454.837 273.478L454.841 273.462L454.844 273.446L454.847 273.431L454.851 273.415L454.854 273.399L454.858 273.384L454.861 273.368L454.864 273.352L454.868 273.337L454.871 273.321L454.875 273.305L454.878 273.29L454.881 273.274L454.885 273.258L454.888 273.243L454.892 273.227L454.895 273.211L454.898 273.196L454.902 273.18L454.905 273.164L454.908 273.149L454.912 273.133L454.915 273.117L454.919 273.102L454.922 273.086L454.925 273.07L454.929 273.055L454.932 273.039L454.936 273.023L454.939 273.008L454.942 272.992L454.946 272.976L454.949 272.961L454.953 272.945L454.956 272.929L454.959 272.914L454.963 272.898L454.966 272.882L454.97 272.867L454.973 272.851L454.976 272.835L454.98 272.82L454.983 272.804L454.986 272.788L454.99 272.773L454.993 272.757L454.997 272.741L455 272.726L455.003 272.71L455.007 272.694L455.01 272.679L455.014 272.663L455.017 272.647L455.02 272.632L455.024 272.616L455.027 272.6L455.031 272.585L455.034 272.569L455.037 272.553L455.041 272.538L455.044 272.522L455.048 272.506L455.051 272.491L455.054 272.475L455.058 272.459L455.061 272.444L455.065 272.428L455.068 272.412L455.071 272.397L455.075 272.381L455.078 272.365L455.081 272.35L455.085 272.334L455.088 272.318L455.092 272.303L455.095 272.287L455.098 272.271L455.102 272.256L455.105 272.24L455.109 272.224L455.112 272.209L455.115 272.193L455.119 272.177L455.122 272.162L455.126 272.146L455.129 272.13L455.132 272.115L455.136 272.099L455.139 272.083L455.143 272.068L455.146 272.052L455.149 272.036L455.153 272.021L455.156 272.005L455.159 271.989L455.163 271.974L455.166 271.958L455.17 271.942L455.173 271.927L455.176 271.911L455.18 271.895L455.183 271.88L455.187 271.864L455.19 271.848L455.193 271.833L455.197 271.817L455.2 271.801L455.204 271.786L455.207 271.77L455.21 271.754L455.214 271.739L455.217 271.723L455.221 271.707L455.224 271.692L455.227 271.676L455.231 271.66L455.234 271.645L455.238 271.629L455.241 271.613L455.244 271.598L455.248 271.582L455.251 271.566L455.254 271.551L455.258 271.535L455.261 271.519L455.265 271.504L455.268 271.488L455.271 271.472L455.275 271.457L455.278 271.441L455.282 271.425L455.285 271.41L455.288 271.394L455.292 271.378L455.295 271.363L455.299 271.347L455.302 271.331L455.305 271.316L455.309 271.3L455.312 271.284L455.316 271.269L455.319 271.253L455.322 271.237L455.326 271.222L455.329 271.206L455.332 271.19L455.336 271.175L455.339 271.159L455.343 271.143L455.346 271.128L455.349 271.112L455.353 271.096L455.356 271.081L455.36 271.065L455.363 271.049L455.366 271.034L455.37 271.018L455.373 271.002L455.377 270.987L455.38 270.971L455.383 270.955L455.387 270.94L455.39 270.924L455.394 270.908L455.397 270.893L455.4 270.877L455.404 270.861L455.407 270.846L455.411 270.83L455.414 270.814L455.417 270.799L455.421 270.783L455.424 270.767L455.427 270.752L455.431 270.736L455.434 270.72L455.438 270.705L455.441 270.689L455.444 270.673L455.448 270.658L455.451 270.642L455.455 270.626L455.458 270.611L455.461 270.595L455.465 270.579L455.468 270.564L455.472 270.548L455.475 270.532L455.478 270.517L455.482 270.501L455.485 270.485L455.489 270.47L455.492 270.454L455.495 270.438L455.499 270.423L455.502 270.407L455.505 270.391L455.509 270.376L455.512 270.36L455.516 270.344L455.519 270.329L455.522 270.313L455.526 270.297L455.529 270.282L455.533 270.266L455.536 270.25L455.539 270.235L455.543 270.219L455.546 270.203L455.55 270.188L455.553 270.172L455.556 270.156L455.56 270.141L455.563 270.125L455.567 270.109L455.57 270.094L455.573 270.078L455.577 270.062L455.58 270.047L455.583 270.031L455.587 270.015L455.59 270L455.594 269.984L455.597 269.968L455.6 269.953L455.604 269.937L455.607 269.921L455.611 269.906L455.614 269.89L455.617 269.874L455.621 269.859L455.624 269.843L455.628 269.827L455.631 269.812L455.634 269.796L455.638 269.78L455.641 269.765L455.645 269.749L455.648 269.733L455.651 269.718L455.655 269.702L455.658 269.686L455.662 269.671L455.665 269.655L455.668 269.639L455.672 269.624L455.675 269.608L455.678 269.592L455.682 269.577L455.685 269.561L455.689 269.545L455.692 269.53L455.695 269.514L455.699 269.498L455.702 269.483L455.706 269.467L455.709 269.451L455.712 269.436L455.716 269.42L455.719 269.404L455.723 269.389L455.726 269.373L455.729 269.357L455.733 269.342L455.736 269.326L455.74 269.31L455.743 269.295L455.746 269.279L455.75 269.263L455.753 269.248L455.756 269.232L455.76 269.216L455.763 269.201L455.767 269.185L455.77 269.169L455.773 269.154L455.777 269.138L455.78 269.122L455.784 269.107L455.787 269.091L455.79 269.075L455.794 269.06L455.797 269.044L455.801 269.028L455.804 269.013L455.807 268.997L455.811 268.981L455.814 268.966L455.818 268.95L455.821 268.934L455.824 268.919L455.828 268.903L455.831 268.887L455.835 268.872L455.838 268.856L455.841 268.84L455.845 268.825L455.848 268.809L455.851 268.793L455.855 268.778L455.858 268.762L455.862 268.746L455.865 268.731L455.868 268.715L455.872 268.699L455.875 268.684L455.879 268.668L455.882 268.652L455.885 268.637L455.889 268.621L455.892 268.605L455.896 268.59L455.899 268.574L455.902 268.558L455.906 268.543L455.909 268.527L455.913 268.511L455.916 268.496L455.919 268.48L455.923 268.464L455.926 268.449L455.929 268.433L455.933 268.417L455.936 268.402L455.94 268.386L455.943 268.37L455.946 268.355L455.95 268.339L455.953 268.323L455.957 268.308L455.96 268.292L455.963 268.276L455.967 268.261L455.97 268.245L455.974 268.229L455.977 268.214L455.98 268.198L455.984 268.182L455.987 268.167L455.991 268.151L455.994 268.135L455.997 268.12L456.001 268.104L456.004 268.088L456.008 268.073L456.011 268.057L456.014 268.041L456.018 268.026L456.021 268.01L456.024 267.994L456.028 267.979L456.031 267.963L456.035 267.947L456.038 267.932L456.041 267.916L456.045 267.9L456.048 267.885L456.052 267.869L456.055 267.853L456.058 267.838L456.062 267.822L456.065 267.806L456.069 267.791L456.072 267.775L456.075 267.759L456.079 267.744L456.082 267.728L456.086 267.712L456.089 267.697L456.092 267.681L456.096 267.665L456.099 267.65L456.102 267.634L456.106 267.618L456.109 267.603L456.113 267.587L456.116 267.571L456.119 267.556L456.123 267.54L456.126 267.524L456.13 267.509L456.133 267.493L456.136 267.477L456.14 267.462L456.143 267.446L456.147 267.43L456.15 267.415L456.153 267.399L456.157 267.383L456.16 267.368L456.164 267.352L456.167 267.336L456.17 267.321L456.174 267.305L456.177 267.289L456.181 267.274L456.184 267.258L456.187 267.242L456.191 267.227L456.194 267.211L456.197 267.195L456.201 267.18L456.204 267.164L456.208 267.148L456.211 267.133L456.214 267.117L456.218 267.101L456.221 267.086L456.225 267.07L456.228 267.054L456.231 267.039L456.235 267.023L456.238 267.007L456.242 266.992L456.245 266.976L456.248 266.96L456.252 266.945L456.255 266.929L456.259 266.913L456.262 266.898L456.265 266.882L456.269 266.866L456.272 266.851L456.275 266.835L456.279 266.819L456.282 266.804L456.286 266.788L456.289 266.772L456.292 266.757L456.296 266.741L456.299 266.725L456.303 266.71L456.306 266.694L456.309 266.678L456.313 266.663L456.316 266.647L456.32 266.631L456.323 266.616L456.326 266.6L456.33 266.584L456.333 266.569L456.337 266.553L456.34 266.537L456.343 266.522L456.347 266.506L456.35 266.49L456.354 266.475L456.357 266.459L456.36 266.443L456.364 266.428L456.367 266.412L456.37 266.396L456.374 266.381L456.377 266.365L456.381 266.349L456.384 266.334L456.387 266.318L456.391 266.302L456.394 266.287L456.398 266.271L456.401 266.255L456.404 266.24L456.408 266.224L456.411 266.208L456.415 266.193L456.418 266.177L456.421 266.161L456.425 266.146L456.428 266.13L456.432 266.114L456.435 266.099L456.438 266.083L456.442 266.067L456.445 266.052L456.448 266.036L456.452 266.02L456.455 266.005L456.459 265.989L456.462 265.973L456.465 265.958L456.469 265.942L456.472 265.926L456.476 265.911L456.479 265.895L456.482 265.879L456.486 265.864L456.489 265.848L456.493 265.832L456.496 265.817L456.499 265.801L456.503 265.785L456.506 265.77L454.799 274.063Z" fill="#C6C6C6" fill-opacity="0.5" stroke="#5A5A5A"/>
</g>
<g id="dead_powerwall">
<path id="Vector_24" d="M245.83 458.723L266.566 500.605L265.032 503.788L244.296 461.906L245.83 458.723Z" fill="#C6C6C6" fill-opacity="0.5"/>
<path id="Vector_25" d="M265.777 504.377L267.373 501.065L294.951 500.918L293.354 504.23L265.777 504.377Z" fill="#C6C6C6" fill-opacity="0.5"/>
<path id="Vector_26" d="M294.946 499.99L267.368 500.138L246.57 458.127L274.147 457.979L294.946 499.99Z" fill="#C6C6C6" fill-opacity="0.5"/>
</g>
</g>
<path id="Solar" d="M258.205 9.24658C256.999 8.8999 256.12 8.4751 255.568 7.97217C255.021 7.46436 254.748 6.83936 254.748 6.09717C254.748 5.25732 255.082 4.56396 255.751 4.01709C256.425 3.46533 257.299 3.18945 258.373 3.18945C259.105 3.18945 259.757 3.33105 260.329 3.61426C260.905 3.89746 261.349 4.28809 261.662 4.78613C261.979 5.28418 262.138 5.82861 262.138 6.41943H260.724C260.724 5.7749 260.519 5.26953 260.109 4.90332C259.699 4.53223 259.12 4.34668 258.373 4.34668C257.68 4.34668 257.138 4.50049 256.747 4.80811C256.361 5.11084 256.168 5.5332 256.168 6.0752C256.168 6.50977 256.352 6.87842 256.718 7.18115C257.089 7.479 257.716 7.75244 258.6 8.00146C259.489 8.25049 260.182 8.52637 260.68 8.8291C261.183 9.12695 261.554 9.47607 261.793 9.87646C262.038 10.2769 262.16 10.748 262.16 11.29C262.16 12.1543 261.823 12.8477 261.149 13.3701C260.475 13.8877 259.574 14.1465 258.446 14.1465C257.714 14.1465 257.03 14.0073 256.396 13.729C255.761 13.4458 255.27 13.0601 254.923 12.5718C254.582 12.0835 254.411 11.5293 254.411 10.9092H255.824C255.824 11.5537 256.061 12.064 256.535 12.4399C257.013 12.811 257.65 12.9966 258.446 12.9966C259.188 12.9966 259.757 12.8452 260.153 12.5425C260.548 12.2397 260.746 11.8271 260.746 11.3047C260.746 10.7822 260.563 10.3794 260.197 10.0962C259.831 9.80811 259.167 9.5249 258.205 9.24658ZM263.397 9.96436C263.397 9.18799 263.549 8.48975 263.852 7.86963C264.159 7.24951 264.584 6.771 265.126 6.43408C265.673 6.09717 266.295 5.92871 266.994 5.92871C268.073 5.92871 268.944 6.30225 269.608 7.04932C270.277 7.79639 270.612 8.79004 270.612 10.0303V10.1255C270.612 10.897 270.463 11.5903 270.165 12.2056C269.872 12.8159 269.45 13.292 268.898 13.6338C268.351 13.9756 267.721 14.1465 267.008 14.1465C265.934 14.1465 265.062 13.7729 264.394 13.0259C263.729 12.2788 263.397 11.29 263.397 10.0596V9.96436ZM264.76 10.1255C264.76 11.0044 264.962 11.71 265.368 12.2422C265.778 12.7744 266.325 13.0405 267.008 13.0405C267.697 13.0405 268.244 12.772 268.649 12.2349C269.054 11.6929 269.257 10.936 269.257 9.96436C269.257 9.09521 269.049 8.39209 268.634 7.85498C268.224 7.31299 267.677 7.04199 266.994 7.04199C266.325 7.04199 265.785 7.30811 265.375 7.84033C264.965 8.37256 264.76 9.13428 264.76 10.1255ZM273.783 14H272.428V2.75H273.783V14ZM280.851 14C280.773 13.8438 280.709 13.5654 280.661 13.165C280.031 13.8193 279.279 14.1465 278.405 14.1465C277.624 14.1465 276.981 13.9268 276.479 13.4873C275.98 13.043 275.731 12.4814 275.731 11.8027C275.731 10.9775 276.044 10.3379 276.669 9.88379C277.299 9.4248 278.183 9.19531 279.32 9.19531H280.639V8.57275C280.639 8.09912 280.497 7.72314 280.214 7.44482C279.931 7.16162 279.513 7.02002 278.961 7.02002C278.478 7.02002 278.073 7.14209 277.746 7.38623C277.418 7.63037 277.255 7.92578 277.255 8.27246H275.893C275.893 7.87695 276.032 7.49609 276.31 7.12988C276.593 6.75879 276.974 6.46582 277.453 6.25098C277.936 6.03613 278.466 5.92871 279.042 5.92871C279.955 5.92871 280.67 6.1582 281.188 6.61719C281.706 7.07129 281.974 7.69873 281.994 8.49951V12.147C281.994 12.8745 282.086 13.4531 282.272 13.8828V14H280.851ZM278.603 12.9673C279.027 12.9673 279.43 12.8574 279.811 12.6377C280.192 12.418 280.468 12.1323 280.639 11.7808V10.1548H279.577C277.917 10.1548 277.086 10.6406 277.086 11.6123C277.086 12.0371 277.228 12.3691 277.511 12.6084C277.794 12.8477 278.158 12.9673 278.603 12.9673ZM287.948 7.29102C287.743 7.25684 287.521 7.23975 287.282 7.23975C286.393 7.23975 285.79 7.61816 285.473 8.375V14H284.118V6.0752H285.436L285.458 6.99072C285.902 6.28271 286.532 5.92871 287.348 5.92871C287.611 5.92871 287.812 5.96289 287.948 6.03125V7.29102Z" fill="#EAEAEA" fill-opacity="0.7"/>
<path id="Grid" d="M78.4004 367.601C78.0391 368.119 77.5337 368.507 76.8843 368.766C76.2397 369.02 75.4878 369.146 74.6284 369.146C73.7593 369.146 72.9878 368.944 72.314 368.539C71.6401 368.128 71.1177 367.547 70.7466 366.795C70.3804 366.043 70.1924 365.172 70.1826 364.181V363.25C70.1826 361.644 70.5562 360.399 71.3032 359.515C72.0552 358.631 73.1099 358.189 74.4673 358.189C75.5806 358.189 76.4766 358.475 77.1553 359.046C77.834 359.613 78.249 360.418 78.4004 361.463H76.9941C76.7305 360.052 75.8906 359.347 74.4746 359.347C73.5322 359.347 72.8169 359.679 72.3286 360.343C71.8452 361.002 71.6011 361.959 71.5962 363.214V364.085C71.5962 365.282 71.8696 366.234 72.4165 366.942C72.9634 367.645 73.7031 367.997 74.6357 367.997C75.1631 367.997 75.6245 367.938 76.02 367.821C76.4155 367.704 76.7427 367.506 77.0015 367.228V364.833H74.5332V363.69H78.4004V367.601ZM84.3696 362.291C84.1646 362.257 83.9424 362.24 83.7031 362.24C82.8145 362.24 82.2114 362.618 81.894 363.375V369H80.5391V361.075H81.8574L81.8794 361.991C82.3237 361.283 82.9536 360.929 83.769 360.929C84.0327 360.929 84.2329 360.963 84.3696 361.031V362.291ZM87.0942 369H85.7393V361.075H87.0942V369ZM85.6294 358.973C85.6294 358.753 85.6953 358.568 85.8271 358.417C85.9639 358.265 86.1641 358.189 86.4277 358.189C86.6914 358.189 86.8916 358.265 87.0283 358.417C87.165 358.568 87.2334 358.753 87.2334 358.973C87.2334 359.193 87.165 359.376 87.0283 359.522C86.8916 359.669 86.6914 359.742 86.4277 359.742C86.1641 359.742 85.9639 359.669 85.8271 359.522C85.6953 359.376 85.6294 359.193 85.6294 358.973ZM88.9399 364.972C88.9399 363.756 89.228 362.779 89.8042 362.042C90.3804 361.3 91.1348 360.929 92.0674 360.929C92.9951 360.929 93.73 361.246 94.272 361.881V357.75H95.627V369H94.3818L94.3159 368.15C93.7739 368.814 93.0195 369.146 92.0527 369.146C91.1348 369.146 90.3853 368.771 89.8042 368.019C89.228 367.267 88.9399 366.285 88.9399 365.074V364.972ZM90.2949 365.125C90.2949 366.024 90.4805 366.727 90.8516 367.235C91.2227 367.743 91.7354 367.997 92.3896 367.997C93.249 367.997 93.8765 367.611 94.272 366.839V363.199C93.8667 362.452 93.2441 362.079 92.4043 362.079C91.7402 362.079 91.2227 362.335 90.8516 362.848C90.4805 363.36 90.2949 364.12 90.2949 365.125Z" fill="#EAEAEA" fill-opacity="0.7"/>
<path id="Powerwall" d="M237.596 574.825V579H236.189V568.336H240.123C241.29 568.336 242.203 568.634 242.862 569.229C243.526 569.825 243.858 570.614 243.858 571.595C243.858 572.63 243.533 573.429 242.884 573.99C242.239 574.547 241.314 574.825 240.108 574.825H237.596ZM237.596 573.675H240.123C240.875 573.675 241.451 573.5 241.851 573.148C242.251 572.792 242.452 572.279 242.452 571.61C242.452 570.975 242.251 570.467 241.851 570.086C241.451 569.706 240.901 569.508 240.203 569.493H237.596V573.675ZM244.979 574.964C244.979 574.188 245.13 573.49 245.433 572.87C245.74 572.25 246.165 571.771 246.707 571.434C247.254 571.097 247.876 570.929 248.575 570.929C249.654 570.929 250.525 571.302 251.189 572.049C251.858 572.796 252.193 573.79 252.193 575.03V575.125C252.193 575.897 252.044 576.59 251.746 577.206C251.453 577.816 251.031 578.292 250.479 578.634C249.932 578.976 249.302 579.146 248.589 579.146C247.515 579.146 246.644 578.773 245.975 578.026C245.311 577.279 244.979 576.29 244.979 575.06V574.964ZM246.341 575.125C246.341 576.004 246.543 576.71 246.949 577.242C247.359 577.774 247.906 578.041 248.589 578.041C249.278 578.041 249.825 577.772 250.23 577.235C250.635 576.693 250.838 575.936 250.838 574.964C250.838 574.095 250.63 573.392 250.215 572.855C249.805 572.313 249.258 572.042 248.575 572.042C247.906 572.042 247.366 572.308 246.956 572.84C246.546 573.373 246.341 574.134 246.341 575.125ZM260.909 577.132L262.432 571.075H263.787L261.48 579H260.381L258.455 572.994L256.58 579H255.481L253.182 571.075H254.529L256.089 577.008L257.935 571.075H259.026L260.909 577.132ZM268.46 579.146C267.386 579.146 266.512 578.795 265.838 578.092C265.164 577.384 264.827 576.439 264.827 575.257V575.008C264.827 574.222 264.976 573.521 265.274 572.906C265.577 572.286 265.997 571.803 266.534 571.456C267.076 571.104 267.662 570.929 268.292 570.929C269.322 570.929 270.123 571.268 270.694 571.947C271.265 572.625 271.551 573.597 271.551 574.862V575.426H266.182C266.202 576.207 266.429 576.839 266.863 577.323C267.303 577.801 267.859 578.041 268.533 578.041C269.012 578.041 269.417 577.943 269.749 577.748C270.081 577.552 270.372 577.293 270.621 576.971L271.448 577.616C270.784 578.636 269.788 579.146 268.46 579.146ZM268.292 572.042C267.745 572.042 267.286 572.242 266.915 572.643C266.543 573.038 266.314 573.595 266.226 574.312H270.196V574.21C270.157 573.521 269.971 572.989 269.639 572.613C269.307 572.232 268.858 572.042 268.292 572.042ZM276.956 572.291C276.751 572.257 276.529 572.24 276.29 572.24C275.401 572.24 274.798 572.618 274.48 573.375V579H273.125V571.075H274.444L274.466 571.991C274.91 571.283 275.54 570.929 276.355 570.929C276.619 570.929 276.819 570.963 276.956 571.031V572.291ZM285.357 577.132L286.88 571.075H288.235L285.928 579H284.83L282.903 572.994L281.028 579H279.93L277.63 571.075H278.978L280.538 577.008L282.383 571.075H283.475L285.357 577.132ZM294.512 579C294.434 578.844 294.371 578.565 294.322 578.165C293.692 578.819 292.94 579.146 292.066 579.146C291.285 579.146 290.643 578.927 290.14 578.487C289.642 578.043 289.393 577.481 289.393 576.803C289.393 575.978 289.705 575.338 290.33 574.884C290.96 574.425 291.844 574.195 292.981 574.195H294.3V573.573C294.3 573.099 294.158 572.723 293.875 572.445C293.592 572.162 293.174 572.02 292.623 572.02C292.139 572.02 291.734 572.142 291.407 572.386C291.08 572.63 290.916 572.926 290.916 573.272H289.554C289.554 572.877 289.693 572.496 289.971 572.13C290.254 571.759 290.635 571.466 291.114 571.251C291.597 571.036 292.127 570.929 292.703 570.929C293.616 570.929 294.332 571.158 294.849 571.617C295.367 572.071 295.635 572.699 295.655 573.5V577.147C295.655 577.875 295.748 578.453 295.933 578.883V579H294.512ZM292.264 577.967C292.688 577.967 293.091 577.857 293.472 577.638C293.853 577.418 294.129 577.132 294.3 576.781V575.155H293.238C291.578 575.155 290.748 575.641 290.748 576.612C290.748 577.037 290.889 577.369 291.172 577.608C291.456 577.848 291.819 577.967 292.264 577.967ZM299.251 579H297.896V567.75H299.251V579ZM302.898 579H301.543V567.75H302.898V579Z" fill="#EAEAEA" fill-opacity="0.7"/>
<path id="Home" d="M446.755 369H445.342V364.071H439.966V369H438.56V358.336H439.966V362.921H445.342V358.336H446.755V369ZM448.682 364.964C448.682 364.188 448.833 363.49 449.136 362.87C449.443 362.25 449.868 361.771 450.41 361.434C450.957 361.097 451.58 360.929 452.278 360.929C453.357 360.929 454.229 361.302 454.893 362.049C455.562 362.796 455.896 363.79 455.896 365.03V365.125C455.896 365.897 455.747 366.59 455.449 367.206C455.156 367.816 454.734 368.292 454.182 368.634C453.635 368.976 453.005 369.146 452.292 369.146C451.218 369.146 450.347 368.773 449.678 368.026C449.014 367.279 448.682 366.29 448.682 365.06V364.964ZM450.044 365.125C450.044 366.004 450.247 366.71 450.652 367.242C451.062 367.774 451.609 368.041 452.292 368.041C452.981 368.041 453.528 367.772 453.933 367.235C454.338 366.693 454.541 365.936 454.541 364.964C454.541 364.095 454.333 363.392 453.918 362.855C453.508 362.313 452.961 362.042 452.278 362.042C451.609 362.042 451.069 362.308 450.659 362.84C450.249 363.373 450.044 364.134 450.044 365.125ZM458.87 361.075L458.906 361.954C459.487 361.271 460.271 360.929 461.257 360.929C462.366 360.929 463.12 361.354 463.521 362.203C463.784 361.822 464.126 361.515 464.546 361.28C464.971 361.046 465.471 360.929 466.047 360.929C467.786 360.929 468.669 361.849 468.699 363.69V369H467.344V363.771C467.344 363.204 467.214 362.782 466.956 362.503C466.697 362.22 466.262 362.079 465.652 362.079C465.149 362.079 464.731 362.23 464.399 362.533C464.067 362.831 463.875 363.233 463.821 363.741V369H462.458V363.807C462.458 362.655 461.895 362.079 460.767 362.079C459.878 362.079 459.27 362.457 458.943 363.214V369H457.588V361.075H458.87ZM474.038 369.146C472.964 369.146 472.09 368.795 471.416 368.092C470.742 367.384 470.405 366.439 470.405 365.257V365.008C470.405 364.222 470.554 363.521 470.852 362.906C471.155 362.286 471.575 361.803 472.112 361.456C472.654 361.104 473.24 360.929 473.87 360.929C474.9 360.929 475.701 361.268 476.272 361.947C476.843 362.625 477.129 363.597 477.129 364.862V365.426H471.76C471.78 366.207 472.007 366.839 472.441 367.323C472.881 367.801 473.438 368.041 474.111 368.041C474.59 368.041 474.995 367.943 475.327 367.748C475.659 367.552 475.95 367.293 476.199 366.971L477.026 367.616C476.362 368.636 475.366 369.146 474.038 369.146ZM473.87 362.042C473.323 362.042 472.864 362.242 472.493 362.643C472.122 363.038 471.892 363.595 471.804 364.312H475.774V364.21C475.735 363.521 475.549 362.989 475.217 362.613C474.885 362.232 474.436 362.042 473.87 362.042Z" fill="#EAEAEA" fill-opacity="0.7"/>
</g>
<defs>
<linearGradient id="paint0_linear" x1="266.463" y1="129.346" x2="133.284" y2="271.226" gradientUnits="userSpaceOnUse">
<stop stop-color="#FFE600"/>
<stop offset="0.479167" stop-color="#FFD601" stop-opacity="0.991521"/>
<stop offset="1" stop-color="#FF0505" stop-opacity="0.952119"/>
</linearGradient>
<linearGradient id="paint1_linear" x1="284.088" y1="147" x2="400.783" y2="267.802" gradientUnits="userSpaceOnUse">
<stop stop-color="#FFF500"/>
<stop offset="0.9999" stop-color="#0085FF" stop-opacity="0.916667"/>
</linearGradient>
<linearGradient id="paint2_linear" x1="142" y1="287.352" x2="285.867" y2="410.293" gradientUnits="userSpaceOnUse">
<stop stop-color="#FF0000"/>
<stop offset="1" stop-color="#14FF00"/>
</linearGradient>
<linearGradient id="paint3_linear" x1="274.407" y1="433" x2="418.275" y2="310.059" gradientUnits="userSpaceOnUse">
<stop stop-color="#05FF00"/>
<stop offset="1" stop-color="#0085FF" stop-opacity="0.970676"/>
</linearGradient>
<linearGradient id="paint4_linear" x1="270.935" y1="147" x2="270.935" y2="433" gradientUnits="userSpaceOnUse">
<stop stop-color="#FFE600"/>
<stop offset="0.505208" stop-color="#D8E902"/>
<stop offset="1" stop-color="#24FF00"/>
</linearGradient>
<linearGradient id="paint5_linear" x1="142" y1="283.38" x2="398.869" y2="282.436" gradientUnits="userSpaceOnUse">
<stop stop-color="#FF0000"/>
<stop offset="1" stop-color="#0094FF"/>
</linearGradient>
</defs>
</svg>
