<svg width="400" height="711" viewBox="0 0 400 711" fill="none" xmlns="http://www.w3.org/2000/svg">
<g id="frame_medium_size">
<path id="curve1" d="M197 127C197 150.502 197 200.641 197 213.176C197 225.71 185.895 227.538 180.342 226.886H103" stroke="url(#paint0_linear)"/>
<path id="curve2" d="M203 127C203 150.502 203 200.641 203 213.176C203 225.71 214.105 227.538 219.658 226.886H297" stroke="url(#paint1_linear)"/>
<path id="curve3" d="M103 233C125.092 233 172.223 233 184.005 233C195.788 233 197.506 245.996 196.892 252.494L196.892 343" stroke="url(#paint2_linear)"/>
<path id="curve4" d="M203 343C203 317.147 203 261.995 203 248.207C203 234.419 214.105 232.408 219.658 233.126H297" stroke="url(#paint3_linear)"/>
<path id="line2" d="M200 127L200 343" stroke="url(#paint4_linear)"/>
<path id="line1" d="M103 230L297 230" stroke="url(#paint5_linear)"/>
<g id="dead_status">
<g id="dead_circle_left">
<circle cx="53.3304" cy="230.33" r="49.3304" fill="black"/>
<circle cx="53.3304" cy="230.33" r="48.3304" stroke="#C6C6C6" stroke-opacity="0.5" stroke-width="2"/>
</g>
<g id="dead_circle_right">
<circle cx="346.33" cy="230.33" r="49.3304" fill="black"/>
<circle cx="346.33" cy="230.33" r="48.3304" stroke="#C6C6C6" stroke-opacity="0.5" stroke-width="2"/>
</g>
<g id="dead_circle_bottom">
<circle cx="200.33" cy="391.33" r="49.3304" fill="black"/>
<circle cx="200.33" cy="391.33" r="48.3304" stroke="#C6C6C6" stroke-opacity="0.5" stroke-width="2"/>
</g>
<g id="dead_circle_top">
<circle cx="200.33" cy="77.3304" r="49.3304" fill="black"/>
<circle cx="200.33" cy="77.3304" r="48.3304" stroke="#C6C6C6" stroke-opacity="0.5" stroke-width="2"/>
</g>
<g id="dead_solar">
<path id="Vector" fill-rule="evenodd" clip-rule="evenodd" d="M186.501 47.5222C189.57 47.5222 192.201 50.153 192.201 53.4415C192.201 56.5107 189.57 59.1415 186.501 59.1415C183.212 59.1415 180.581 56.5107 180.581 53.4415C180.581 50.153 183.212 47.5222 186.501 47.5222Z" fill="#C6C6C6" fill-opacity="0.5"/>
<path id="Vector_2" d="M185.624 41.8221C185.624 40.726 187.158 40.726 187.158 41.8221V45.1106C187.158 46.2068 185.624 46.2068 185.624 45.1106V41.8221Z" fill="#C6C6C6" fill-opacity="0.5"/>
<path id="Vector_3" d="M177.731 45.7683C176.854 44.8914 177.951 43.7953 178.827 44.6722L181.239 47.0837C181.897 47.7414 180.801 48.8376 180.143 48.1799L177.731 45.7683Z" fill="#C6C6C6" fill-opacity="0.5"/>
<path id="Vector_4" d="M174.881 54.0991C173.785 54.0991 173.785 52.5645 174.881 52.5645H178.17C179.266 52.5645 179.266 54.0991 178.17 54.0991H174.881Z" fill="#C6C6C6" fill-opacity="0.5"/>
<path id="Vector_5" d="M178.827 62.2108C177.951 62.8685 176.854 61.7723 177.731 60.8954L180.143 58.4838C180.801 57.8261 181.897 58.9223 181.239 59.7992L178.827 62.2108Z" fill="#C6C6C6" fill-opacity="0.5"/>
<path id="Vector_6" d="M198.12 52.5645C198.997 52.5645 198.997 54.0991 198.12 54.0991H194.612C193.516 54.0991 193.516 52.5645 194.612 52.5645H198.12Z" fill="#C6C6C6" fill-opacity="0.5"/>
<path id="Vector_7" d="M193.954 44.6722C194.831 43.7953 195.928 44.8914 195.27 45.7683L192.858 48.1799C191.981 48.8376 190.885 47.7414 191.543 47.0837L193.954 44.6722Z" fill="#C6C6C6" fill-opacity="0.5"/>
<path id="Vector_8" fill-rule="evenodd" clip-rule="evenodd" d="M182.469 83.3203H168L176.769 74.7703H189.265L182.469 83.3203Z" fill="#C6C6C6" fill-opacity="0.5"/>
<path id="Vector_9" fill-rule="evenodd" clip-rule="evenodd" d="M197.377 83.3203H184.004L190.581 74.7703H201.762L197.377 83.3203Z" fill="#C6C6C6" fill-opacity="0.5"/>
<path id="Vector_10" fill-rule="evenodd" clip-rule="evenodd" d="M212.943 83.3203H198.912L203.077 74.7703H214.916L212.943 83.3203Z" fill="#C6C6C6" fill-opacity="0.5"/>
<path id="Vector_11" fill-rule="evenodd" clip-rule="evenodd" d="M228.727 74.7703L228.946 83.3203H214.477L216.012 74.7703H228.727Z" fill="#C6C6C6" fill-opacity="0.5"/>
<path id="Vector_12" fill-rule="evenodd" clip-rule="evenodd" d="M190.362 73.455H178.304L183.785 68.1935H194.527L190.362 73.455Z" fill="#C6C6C6" fill-opacity="0.5"/>
<path id="Vector_13" fill-rule="evenodd" clip-rule="evenodd" d="M202.419 73.455H191.458L195.623 68.1935H205.269L202.419 73.455Z" fill="#C6C6C6" fill-opacity="0.5"/>
<path id="Vector_14" fill-rule="evenodd" clip-rule="evenodd" d="M215.135 73.455H203.735L206.146 68.1935H216.231L215.135 73.455Z" fill="#C6C6C6" fill-opacity="0.5"/>
<path id="Vector_15" fill-rule="evenodd" clip-rule="evenodd" d="M228.508 68.1935V73.455H216.45L217.327 68.1935H228.508Z" fill="#C6C6C6" fill-opacity="0.5"/>
<path id="Vector_16" fill-rule="evenodd" clip-rule="evenodd" d="M218.423 62.7127H228.289V67.0973H217.546L218.423 62.7127Z" fill="#C6C6C6" fill-opacity="0.5"/>
<path id="Vector_17" fill-rule="evenodd" clip-rule="evenodd" d="M208.777 62.7127H217.546L216.45 67.0973H206.804L208.777 62.7127Z" fill="#C6C6C6" fill-opacity="0.5"/>
<path id="Vector_18" fill-rule="evenodd" clip-rule="evenodd" d="M199.789 62.7127H208.119L205.708 67.0973H196.5L199.789 62.7127Z" fill="#C6C6C6" fill-opacity="0.5"/>
<path id="Vector_19" fill-rule="evenodd" clip-rule="evenodd" d="M189.485 62.7127H198.912L195.404 67.0973H184.881L189.485 62.7127Z" fill="#C6C6C6" fill-opacity="0.5"/>
</g>
<g id="dead_grid">
<path id="Vector_20" fill-rule="evenodd" clip-rule="evenodd" d="M70.5228 202.079C70.4767 202.079 70.44 202.079 70.4026 202.079C69.2189 202.079 68.0334 202.072 66.8497 202.084C66.5768 202.087 66.3794 201.843 66.5077 201.549C67.3948 199.511 68.2738 197.47 69.1554 195.43C69.6139 194.368 70.073 193.307 70.5315 192.244C70.61 192.064 70.7602 191.974 70.9222 192.007C71.0978 192.044 71.1981 192.181 71.1981 192.382C71.1994 193.866 71.1994 195.35 71.1994 196.833C71.1994 196.871 71.1994 196.908 71.1994 196.955C71.243 196.955 71.2797 196.955 71.3165 196.955C72.4971 196.955 73.6782 196.955 74.8594 196.956C75.0725 196.956 75.212 197.04 75.2432 197.215C75.2581 197.298 75.2438 197.4 75.2095 197.479C74.685 198.705 74.1548 199.928 73.6253 201.152C72.816 203.025 72.0068 204.898 71.1975 206.77C71.1034 206.991 70.9446 207.078 70.7577 207.018C70.6231 206.974 70.5334 206.859 70.5234 206.717C70.5216 206.686 70.5228 206.653 70.5228 206.622C70.5228 205.148 70.5228 203.674 70.5228 202.199C70.5228 202.162 70.5228 202.125 70.5228 202.079Z" fill="#C6C6C6" fill-opacity="0.5"/>
<path id="Vector_21" d="M30 230.777H32.243V232.985C32.243 233.592 31.7383 234.089 31.1215 234.089C30.5047 234.089 30 233.592 30 232.985V230.777ZM73.7391 232.985C73.7391 233.592 74.2438 234.089 74.8606 234.089C75.4775 234.089 75.9821 233.592 75.9821 232.985V230.777H73.7391V232.985ZM42.8638 228.57L43.4694 222.879L30.3869 228.57H42.8638ZM62.5127 222.879L63.1184 228.57H75.5952L62.5127 222.879ZM31.1215 219.187C31.7383 219.187 32.243 218.69 32.243 218.083V215.876H30V218.083C30 218.69 30.5047 219.187 31.1215 219.187ZM73.7391 215.876V218.083C73.7391 218.69 74.2438 219.187 74.8606 219.187C75.4775 219.187 75.9821 218.69 75.9821 218.083V215.876H73.7391ZM45.1405 207.249L30.3869 213.668H44.4563L45.1405 207.249ZM75.5952 213.668L60.8417 207.249L61.5258 213.668H75.5952ZM43.733 241.523L51.3312 234.68L45.0676 229.039L43.733 241.523ZM60.2192 226.671L52.9911 220.158L45.7629 226.671L52.9911 233.184L60.2192 226.671ZM60.9146 229.039L54.6509 234.68L62.2492 241.523L60.9146 229.039ZM46.6265 214.429L45.6283 223.801L51.3312 218.663L46.6265 214.429ZM46.9237 211.703L52.9911 217.167L59.0585 211.703L58.7388 208.701H47.2433L46.9237 211.703ZM54.6509 218.663L60.3538 223.801L59.3501 214.429L54.6509 218.663ZM47.8321 203.181L47.4788 206.493H58.5033L58.15 203.181H47.8321ZM60.2809 197.662H45.7012V200.974H60.2809V197.662ZM66.4493 242.92H60.4772L52.9911 236.175L45.505 242.92H39.5329C38.9161 242.92 38.4114 243.417 38.4114 244.024C38.4114 244.631 38.9161 245.127 39.5329 245.127H66.4493C67.0661 245.127 67.5708 244.631 67.5708 244.024C67.5708 243.417 67.0661 242.92 66.4493 242.92Z" fill="#C6C6C6" fill-opacity="0.5"/>
</g>
<g id="dead_home">
<path id="Vector_22" fill-rule="evenodd" clip-rule="evenodd" d="M362.418 219.382V235.6C362.418 237.556 360.816 239.156 358.861 239.156H351.32C351.065 239.156 350.856 238.948 350.856 238.693V225.399C350.856 225.144 350.648 224.936 350.393 224.936H342.427C342.172 224.936 341.964 225.144 341.964 225.399V238.693C341.964 238.948 341.756 239.156 341.501 239.156H333.961C332.005 239.156 330.404 237.556 330.404 235.6V219.382H324.465C324.044 219.382 323.84 218.867 324.149 218.581L346.094 198.125C346.272 197.958 346.548 197.958 346.727 198.125L355.304 206.12V202.292C355.304 202.037 355.512 201.829 355.767 201.829H360.176C360.431 201.829 360.639 202.037 360.639 202.292V211.093L368.673 218.581C368.982 218.867 368.777 219.382 368.356 219.382H362.418V219.382Z" fill="#C6C6C6" fill-opacity="0.5"/>
<path id="Vector_23" d="M345.556 215.45L345.45 215.939L345.556 215.45ZM345.556 215.45L345.067 215.344M345.556 215.45L345.067 215.344M345.067 215.344L345.067 215.344L345.067 215.344L345.066 215.344L345.066 215.344L345.065 215.344L345.065 215.344L345.065 215.344L345.064 215.344L345.064 215.344L345.063 215.344L345.063 215.344L345.063 215.343L345.062 215.343L345.062 215.343L345.061 215.343L345.061 215.343L345.061 215.343L345.06 215.343L345.06 215.343L345.059 215.343L345.059 215.343L345.059 215.343L345.058 215.342L345.058 215.342L345.057 215.342L345.057 215.342L345.057 215.342L345.056 215.342L345.056 215.342L345.055 215.342L345.055 215.342L345.055 215.342L345.054 215.342L345.054 215.342L345.053 215.341L345.053 215.341L345.053 215.341L345.052 215.341L345.052 215.341L345.051 215.341L345.051 215.341L345.051 215.341L345.05 215.341L345.05 215.341L345.049 215.341L345.049 215.341L345.049 215.34L345.048 215.34L345.048 215.34L345.047 215.34L345.047 215.34L345.047 215.34L345.046 215.34L345.046 215.34L345.046 215.34L345.045 215.34L345.045 215.34L345.044 215.34L345.044 215.339L345.044 215.339L345.043 215.339L345.043 215.339L345.042 215.339L345.042 215.339L345.042 215.339L345.041 215.339L345.041 215.339L345.041 215.339L345.04 215.339L345.04 215.339L345.039 215.338L345.039 215.338L345.039 215.338L345.038 215.338L345.038 215.338L345.037 215.338L345.037 215.338L345.037 215.338L345.036 215.338L345.036 215.338L345.036 215.338L345.035 215.338L345.035 215.337L345.034 215.337L345.034 215.337L345.034 215.337L345.033 215.337L345.033 215.337L345.032 215.337L345.032 215.337L345.032 215.337L345.031 215.337L345.031 215.337L345.031 215.337L345.03 215.336L345.03 215.336L345.029 215.336L345.029 215.336L345.029 215.336L345.028 215.336L345.028 215.336L345.028 215.336L345.027 215.336L345.027 215.336L345.026 215.336L345.026 215.336L345.026 215.335L345.025 215.335L345.025 215.335L345.025 215.335L345.024 215.335L345.024 215.335L345.023 215.335L345.023 215.335L345.023 215.335L345.022 215.335L345.022 215.335L345.022 215.335L345.021 215.334L345.021 215.334L345.02 215.334L345.02 215.334L345.02 215.334L345.019 215.334L345.019 215.334L345.019 215.334L345.018 215.334L345.018 215.334L345.018 215.334L345.017 215.334L345.017 215.334L345.016 215.333L345.016 215.333L345.016 215.333L345.015 215.333L345.015 215.333L345.015 215.333L345.014 215.333L345.014 215.333L345.013 215.333L345.013 215.333L345.013 215.333L345.012 215.333L345.012 215.332L345.012 215.332L345.011 215.332L345.011 215.332L345.011 215.332L345.01 215.332L345.01 215.332L345.009 215.332L345.009 215.332L345.009 215.332L345.008 215.332L345.008 215.332L345.008 215.332L345.007 215.331L345.007 215.331L345.007 215.331L345.006 215.331L345.006 215.331L345.005 215.331L345.005 215.331L345.005 215.331L345.004 215.331L345.004 215.331L345.004 215.331L345.003 215.331L345.003 215.331L345.003 215.33L345.002 215.33L345.002 215.33L345.001 215.33L345.001 215.33L345.001 215.33L345 215.33L345 215.33L345 215.33L344.999 215.33L344.999 215.33L344.999 215.33L344.998 215.33L344.998 215.329L344.998 215.329L344.997 215.329L344.997 215.329L344.996 215.329L344.996 215.329L344.996 215.329L344.995 215.329L344.995 215.329L344.995 215.329L344.994 215.329L344.994 215.329L344.994 215.329L344.993 215.328L344.993 215.328L344.993 215.328L344.992 215.328L344.992 215.328L344.991 215.328L344.991 215.328L344.991 215.328L344.99 215.328L344.99 215.328L344.99 215.328L344.989 215.328L344.989 215.328L344.989 215.327L344.988 215.327L344.988 215.327L344.988 215.327L344.987 215.327L344.987 215.327L344.987 215.327L344.986 215.327L344.986 215.327L344.985 215.327L344.985 215.327L344.985 215.327L344.984 215.327L344.984 215.326L344.984 215.326L344.983 215.326L344.983 215.326L344.983 215.326L344.982 215.326L344.982 215.326L344.982 215.326L344.981 215.326L344.981 215.326L344.981 215.326L344.98 215.326L344.98 215.326L344.98 215.325L344.979 215.325L344.979 215.325L344.978 215.325L344.978 215.325L344.978 215.325L344.977 215.325L344.977 215.325L344.977 215.325L344.976 215.325L344.976 215.325L344.976 215.325L344.975 215.325L344.975 215.324L344.975 215.324L344.974 215.324L344.974 215.324L344.974 215.324L344.973 215.324L344.973 215.324L344.973 215.324L344.972 215.324L344.972 215.324L344.972 215.324L344.971 215.324L344.971 215.324L344.971 215.324L344.97 215.323L344.97 215.323L344.969 215.323L344.969 215.323L344.969 215.323L344.968 215.323L344.968 215.323L344.968 215.323L344.967 215.323L344.967 215.323L344.967 215.323L344.966 215.323L344.966 215.323L344.966 215.322L344.965 215.322L344.965 215.322L344.965 215.322L344.964 215.322L344.964 215.322L344.964 215.322L344.963 215.322L344.963 215.322L344.963 215.322L344.962 215.322L344.962 215.322L344.962 215.322L344.961 215.322L344.961 215.321L344.961 215.321L344.96 215.321L344.96 215.321L344.96 215.321L344.959 215.321L344.959 215.321L344.959 215.321L344.958 215.321L344.958 215.321L344.958 215.321L344.957 215.321L344.957 215.321L344.957 215.32L344.956 215.32L344.956 215.32L344.955 215.32L344.955 215.32L344.955 215.32L344.954 215.32L344.954 215.32L344.954 215.32L344.953 215.32L344.953 215.32L344.953 215.32L344.952 215.32L344.952 215.32L344.952 215.319L344.951 215.319L344.951 215.319L344.951 215.319L344.95 215.319L344.95 215.319L344.95 215.319L344.949 215.319L344.949 215.319L344.949 215.319L344.948 215.319L344.948 215.319L344.948 215.319L344.947 215.319L344.947 215.318L344.947 215.318L344.946 215.318L344.946 215.318L344.946 215.318L344.945 215.318L344.945 215.318L344.945 215.318L344.944 215.318L344.944 215.318L344.944 215.318L344.943 215.318L344.943 215.318L344.943 215.317L344.942 215.317L344.942 215.317L344.942 215.317L344.941 215.317L344.941 215.317L344.941 215.317L344.94 215.317L344.94 215.317L344.94 215.317L344.939 215.317L344.939 215.317L344.939 215.317L344.938 215.317L344.938 215.316L344.938 215.316L344.937 215.316L344.937 215.316L344.937 215.316L344.936 215.316L344.936 215.316L344.936 215.316L344.935 215.316L344.935 215.316L344.935 215.316L344.934 215.316L344.934 215.316L344.934 215.316L344.933 215.315L344.933 215.315L344.933 215.315L344.932 215.315L344.932 215.315L344.932 215.315L344.931 215.315L344.931 215.315L344.931 215.315L344.93 215.315L344.93 215.315L344.93 215.315L344.929 215.315L344.929 215.315L344.929 215.314L344.928 215.314L344.928 215.314L344.928 215.314L344.927 215.314L344.927 215.314L344.927 215.314L344.926 215.314L344.926 215.314L344.926 215.314L344.925 215.314L344.925 215.314L344.925 215.314L344.924 215.314L344.924 215.313L344.924 215.313L344.923 215.313L344.923 215.313L344.923 215.313L344.922 215.313L344.922 215.313L344.922 215.313L344.921 215.313L344.921 215.313L344.921 215.313L344.92 215.313L344.92 215.313L344.92 215.313L344.919 215.312L344.919 215.312L344.919 215.312L344.918 215.312L344.918 215.312L344.918 215.312L344.917 215.312L344.917 215.312L344.917 215.312L344.916 215.312L344.916 215.312L344.916 215.312L344.915 215.312L344.915 215.312L344.915 215.311L344.915 215.311L344.914 215.311L344.914 215.311L344.914 215.311L344.913 215.311L344.913 215.311L344.913 215.311L344.912 215.311L344.912 215.311L344.912 215.311L344.911 215.311L344.911 215.311L344.911 215.311L344.91 215.31L344.91 215.31L344.91 215.31L344.909 215.31L344.909 215.31L344.909 215.31L344.908 215.31L344.908 215.31L344.908 215.31L344.907 215.31L344.907 215.31L344.907 215.31L344.906 215.31L344.906 215.31L344.906 215.309L344.905 215.309L344.905 215.309L344.905 215.309L344.904 215.309L344.904 215.309L344.904 215.309L344.903 215.309L344.903 215.309L344.903 215.309L344.902 215.309L344.902 215.309L344.902 215.309L344.901 215.309L344.901 215.308L344.901 215.308L344.9 215.308L344.9 215.308L344.9 215.308L344.899 215.308L344.899 215.308L344.899 215.308L344.898 215.308L344.898 215.308L344.898 215.308L344.897 215.308L344.897 215.308L344.897 215.308L344.896 215.307L344.896 215.307L344.896 215.307L344.895 215.307L344.895 215.307L344.895 215.307L344.894 215.307L344.894 215.307L344.894 215.307L344.893 215.307L344.893 215.307L344.893 215.307L344.892 215.307L344.892 215.307L344.892 215.306L344.892 215.306L344.891 215.306L344.891 215.306L344.891 215.306L344.89 215.306L344.89 215.306L344.89 215.306L344.889 215.306L344.889 215.306L344.889 215.306L344.888 215.306L344.888 215.306L344.888 215.306L344.887 215.305L344.887 215.305C344.433 215.207 343.979 215.108 343.524 215.009C342.201 214.721 340.875 214.432 339.548 214.159C339.494 214.147 339.481 214.121 339.479 214.118C339.478 214.115 339.476 214.108 339.478 214.096C339.48 214.083 339.487 214.053 339.518 214.01C341.069 211.828 342.614 209.642 344.158 207.457C344.609 206.819 345.061 206.18 345.512 205.542L345.512 205.542M345.067 215.344L345.512 205.542M345.512 205.542C345.938 204.939 346.364 204.336 346.791 203.733C347.403 202.867 348.016 202 348.628 201.134C348.656 201.094 348.679 201.077 348.691 201.07C348.691 201.071 348.692 201.071 348.693 201.071C348.695 201.081 348.699 201.11 348.687 201.165L348.687 201.165M345.512 205.542L348.687 201.165M348.687 201.165C348.199 203.428 347.709 205.69 347.22 207.95L347.22 207.951L347.22 207.951L347.22 207.951L347.219 207.952L347.219 207.952L347.219 207.952L347.219 207.953L347.219 207.953L347.219 207.953L347.219 207.954L347.219 207.954L347.219 207.954L347.219 207.955L347.219 207.955L347.219 207.955L347.219 207.956L347.219 207.956L347.218 207.956L347.218 207.957L347.218 207.957L347.218 207.957L347.218 207.958L347.218 207.958L347.218 207.958L347.218 207.959L347.218 207.959L347.218 207.96L347.218 207.96L347.218 207.96L347.218 207.961L347.217 207.961L347.217 207.961L347.217 207.962L347.217 207.962L347.217 207.962L347.217 207.963L347.217 207.963L347.217 207.963L347.217 207.964L347.217 207.964L347.217 207.964L347.217 207.965L347.217 207.965L347.217 207.965L347.216 207.966L347.216 207.966L347.216 207.966L347.216 207.967L347.216 207.967L347.216 207.967L347.216 207.968L347.216 207.968L347.216 207.968L347.216 207.969L347.216 207.969L347.216 207.969L347.216 207.97L347.216 207.97L347.215 207.97L347.215 207.971L347.215 207.971L347.215 207.971L347.215 207.972L347.215 207.972L347.215 207.972L347.215 207.973L347.215 207.973L347.215 207.973L347.215 207.974L347.215 207.974L347.215 207.974L347.214 207.975L347.214 207.975L347.214 207.975L347.214 207.976L347.214 207.976L347.214 207.976L347.214 207.977L347.214 207.977L347.214 207.977L347.214 207.978L347.214 207.978L347.214 207.978L347.214 207.979L347.214 207.979L347.213 207.979L347.213 207.98L347.213 207.98L347.213 207.98L347.213 207.981L347.213 207.981L347.213 207.981L347.213 207.982L347.213 207.982L347.213 207.983L347.213 207.983L347.213 207.983L347.213 207.984L347.213 207.984L347.212 207.984L347.212 207.985L347.212 207.985L347.212 207.985L347.212 207.986L347.212 207.986L347.212 207.986L347.212 207.987L347.212 207.987L347.212 207.987L347.212 207.988L347.212 207.988L347.212 207.988L347.211 207.989L347.211 207.989L347.211 207.989L347.211 207.99L347.211 207.99L347.211 207.99L347.211 207.991L347.211 207.991L347.211 207.991L347.211 207.992L347.211 207.992L347.211 207.992L347.211 207.993L347.211 207.993L347.21 207.993L347.21 207.994L347.21 207.994L347.21 207.994L347.21 207.995L347.21 207.995L347.21 207.995L347.21 207.996L347.21 207.996L347.21 207.996L347.21 207.997L347.21 207.997L347.21 207.998L347.209 207.998L347.209 207.998L347.209 207.999L347.209 207.999L347.209 207.999L347.209 208L347.209 208L347.209 208L347.209 208.001L347.209 208.001L347.209 208.001L347.209 208.002L347.209 208.002L347.209 208.002L347.208 208.003L347.208 208.003L347.208 208.003L347.208 208.004L347.208 208.004L347.208 208.004L347.208 208.005L347.208 208.005L347.208 208.005L347.208 208.006L347.208 208.006L347.208 208.006L347.208 208.007L347.207 208.007L347.207 208.008L347.207 208.008L347.207 208.008L347.207 208.009L347.207 208.009L347.207 208.009L347.207 208.01L347.207 208.01L347.207 208.01L347.207 208.011L347.207 208.011L347.207 208.011L347.206 208.012L347.206 208.012L347.206 208.012L347.206 208.013L347.206 208.013L347.206 208.013L347.206 208.014L347.206 208.014L347.206 208.014L347.206 208.015L347.206 208.015L347.206 208.015L347.206 208.016L347.206 208.016L347.205 208.017L347.205 208.017L347.205 208.017L347.205 208.018L347.205 208.018L347.205 208.018L347.205 208.019L347.205 208.019L347.205 208.019L347.205 208.02L347.205 208.02L347.205 208.02L347.205 208.021L347.204 208.021L347.204 208.021L347.204 208.022L347.204 208.022L347.204 208.022L347.204 208.023L347.204 208.023L347.204 208.024L347.204 208.024L347.204 208.024L347.204 208.025L347.204 208.025L347.204 208.025L347.203 208.026L347.203 208.026L347.203 208.026L347.203 208.027L347.203 208.027L347.203 208.027L347.203 208.028L347.203 208.028L347.203 208.028L347.203 208.029L347.203 208.029L347.203 208.029L347.203 208.03L347.202 208.03L347.202 208.031L347.202 208.031L347.202 208.031L347.202 208.032L347.202 208.032L347.202 208.032L347.202 208.033L347.202 208.033L347.202 208.033L347.202 208.034L347.202 208.034L347.202 208.034L347.201 208.035L347.201 208.035L347.201 208.036L347.201 208.036L347.201 208.036L347.201 208.037L347.201 208.037L347.201 208.037L347.201 208.038L347.201 208.038L347.201 208.038L347.201 208.039L347.201 208.039L347.2 208.039L347.2 208.04L347.2 208.04L347.2 208.041L347.2 208.041L347.2 208.041L347.2 208.042L347.2 208.042L347.2 208.042L347.2 208.043L347.2 208.043L347.2 208.043L347.2 208.044L347.199 208.044L347.199 208.044L347.199 208.045L347.199 208.045L347.199 208.046L347.199 208.046L347.199 208.046L347.199 208.047L347.199 208.047L347.199 208.047L347.199 208.048L347.199 208.048L347.199 208.048L347.198 208.049L347.198 208.049L347.198 208.05L347.198 208.05L347.198 208.05L347.198 208.051L347.198 208.051L347.198 208.051L347.198 208.052L347.198 208.052L347.198 208.052L347.198 208.053L347.198 208.053L347.197 208.053L347.197 208.054L347.197 208.054L347.197 208.055L347.197 208.055L347.197 208.055L347.197 208.056L347.197 208.056L347.197 208.056L347.197 208.057L347.197 208.057L347.197 208.058L347.196 208.058L347.196 208.058L347.196 208.059L347.196 208.059L347.196 208.059L347.196 208.06L347.196 208.06L347.196 208.06L347.196 208.061L347.196 208.061L347.196 208.062L347.196 208.062L347.196 208.062L347.195 208.063L347.195 208.063L347.195 208.063L347.195 208.064L347.195 208.064L347.195 208.064L347.195 208.065L347.195 208.065L347.195 208.066L347.195 208.066L347.195 208.066L347.195 208.067L347.194 208.067L347.194 208.067L347.194 208.068L347.194 208.068L347.194 208.069L347.194 208.069L347.194 208.069L347.194 208.07L347.194 208.07L347.194 208.07L347.194 208.071L347.194 208.071L347.194 208.072L347.193 208.072L347.193 208.072L347.193 208.073L347.193 208.073L347.193 208.073L347.193 208.074L347.193 208.074L347.193 208.075L347.193 208.075L347.193 208.075L347.193 208.076L347.193 208.076L347.192 208.076L347.192 208.077L347.192 208.077L347.192 208.078L347.192 208.078L347.192 208.078L347.192 208.079L347.192 208.079L347.192 208.079L347.192 208.08L347.192 208.08L347.192 208.081L347.191 208.081L347.191 208.081L347.191 208.082L347.191 208.082L347.191 208.082L347.191 208.083L347.191 208.083L347.191 208.084L347.191 208.084L347.191 208.084L347.191 208.085L347.191 208.085L347.191 208.085L347.19 208.086L347.19 208.086L347.19 208.087L347.19 208.087L347.19 208.087L347.19 208.088L347.19 208.088L347.19 208.089L347.19 208.089L347.19 208.089L347.19 208.09L347.19 208.09L347.189 208.09L347.189 208.091L347.189 208.091L347.189 208.092L347.189 208.092L347.189 208.092L347.189 208.093L347.189 208.093L347.189 208.094L347.189 208.094L347.189 208.094L347.189 208.095L347.188 208.095L347.188 208.095L347.188 208.096L347.188 208.096L347.188 208.097L347.188 208.097L347.188 208.097L347.188 208.098L347.188 208.098L347.188 208.099L347.188 208.099L347.187 208.099L347.187 208.1L347.187 208.1L347.187 208.101L347.187 208.101L347.187 208.101L347.187 208.102L347.187 208.102L347.187 208.103L347.187 208.103L347.187 208.103L347.187 208.104L347.186 208.104L347.186 208.104L347.186 208.105L347.186 208.105L347.186 208.106L347.186 208.106L347.186 208.106L347.186 208.107L347.186 208.107L347.186 208.108L347.186 208.108L347.186 208.108L347.185 208.109L347.185 208.109L347.185 208.11L347.185 208.11L347.185 208.11L347.185 208.111L347.185 208.111L347.185 208.112L347.185 208.112L347.185 208.112L347.185 208.113L347.185 208.113L347.184 208.114L347.184 208.114L347.184 208.114L347.184 208.115L347.184 208.115L347.184 208.116L347.184 208.116L347.184 208.116L347.184 208.117L347.184 208.117L347.184 208.118L347.183 208.118L347.183 208.118L347.183 208.119L347.183 208.119L347.183 208.12L347.183 208.12L347.183 208.12L347.183 208.121L347.183 208.121L347.183 208.122L347.183 208.122L347.183 208.122L347.182 208.123L347.182 208.123L347.182 208.124L347.182 208.124L347.182 208.124L347.182 208.125L347.182 208.125L347.182 208.126L347.182 208.126L347.182 208.127L347.182 208.127L347.181 208.127L347.181 208.128L347.181 208.128L347.181 208.129L347.181 208.129L347.181 208.129L347.181 208.13L347.181 208.13L347.181 208.131L347.181 208.131L347.181 208.131L347.18 208.132L347.18 208.132L347.18 208.133L347.18 208.133L347.18 208.133L347.18 208.134L347.18 208.134L347.18 208.135L347.18 208.135L347.18 208.136L347.18 208.136L347.179 208.136L347.074 208.625M348.687 201.165L347.074 208.625M347.074 208.625L347.562 208.731M347.074 208.625L347.562 208.731M347.562 208.731L347.563 208.731L347.563 208.731L347.564 208.731L347.564 208.731L347.564 208.731L347.565 208.731L347.565 208.731L347.565 208.732L347.566 208.732L347.566 208.732L347.567 208.732L347.567 208.732L347.567 208.732L347.568 208.732L347.568 208.732L347.568 208.732L347.569 208.732L347.569 208.732L347.57 208.732L347.57 208.733L347.57 208.733L347.571 208.733L347.571 208.733L347.571 208.733L347.572 208.733L347.572 208.733L347.573 208.733L347.573 208.733L347.573 208.733L347.574 208.733L347.574 208.733L347.575 208.734L347.575 208.734L347.575 208.734L347.576 208.734L347.576 208.734L347.576 208.734L347.577 208.734L347.577 208.734L347.578 208.734L347.578 208.734L347.578 208.734L347.579 208.734L347.579 208.734L347.579 208.735L347.58 208.735L347.58 208.735L347.58 208.735L347.581 208.735L347.581 208.735L347.582 208.735L347.582 208.735L347.582 208.735L347.583 208.735L347.583 208.735L347.583 208.735L347.584 208.736L347.584 208.736L347.585 208.736L347.585 208.736L347.585 208.736L347.586 208.736L347.586 208.736L347.586 208.736L347.587 208.736L347.587 208.736L347.588 208.736L347.588 208.736L347.588 208.736L347.589 208.737L347.589 208.737L347.589 208.737L347.59 208.737L347.59 208.737L347.59 208.737L347.591 208.737L347.591 208.737L347.592 208.737L347.592 208.737L347.592 208.737L347.593 208.737L347.593 208.738L347.593 208.738L347.594 208.738L347.594 208.738L347.595 208.738L347.595 208.738L347.595 208.738L347.596 208.738L347.596 208.738L347.596 208.738L347.597 208.738L347.597 208.738L347.597 208.738L347.598 208.739L347.598 208.739L347.599 208.739L347.599 208.739L347.599 208.739L347.6 208.739L347.6 208.739L347.6 208.739L347.601 208.739L347.601 208.739L347.601 208.739L347.602 208.739L347.602 208.739L347.602 208.74L347.603 208.74L347.603 208.74L347.604 208.74L347.604 208.74L347.604 208.74L347.605 208.74L347.605 208.74L347.605 208.74L347.606 208.74L347.606 208.74L347.606 208.74L347.607 208.741L347.607 208.741L347.608 208.741L347.608 208.741L347.608 208.741L347.609 208.741L347.609 208.741L347.609 208.741L347.61 208.741L347.61 208.741L347.61 208.741L347.611 208.741L347.611 208.741L347.611 208.742L347.612 208.742L347.612 208.742L347.613 208.742L347.613 208.742L347.613 208.742L347.614 208.742L347.614 208.742L347.614 208.742L347.615 208.742L347.615 208.742L347.615 208.742L347.616 208.742L347.616 208.743L347.616 208.743L347.617 208.743L347.617 208.743L347.617 208.743L347.618 208.743L347.618 208.743L347.619 208.743L347.619 208.743L347.619 208.743L347.62 208.743L347.62 208.743L347.62 208.743L347.621 208.744L347.621 208.744L347.621 208.744L347.622 208.744L347.622 208.744L347.622 208.744L347.623 208.744L347.623 208.744L347.623 208.744L347.624 208.744L347.624 208.744L347.625 208.744L347.625 208.744L347.625 208.744L347.626 208.745L347.626 208.745L347.626 208.745L347.627 208.745L347.627 208.745L347.627 208.745L347.628 208.745L347.628 208.745L347.628 208.745L347.629 208.745L347.629 208.745L347.629 208.745L347.63 208.745L347.63 208.746L347.63 208.746L347.631 208.746L347.631 208.746L347.631 208.746L347.632 208.746L347.632 208.746L347.633 208.746L347.633 208.746L347.633 208.746L347.634 208.746L347.634 208.746L347.634 208.746L347.635 208.747L347.635 208.747L347.635 208.747L347.636 208.747L347.636 208.747L347.636 208.747L347.637 208.747L347.637 208.747L347.637 208.747L347.638 208.747L347.638 208.747L347.638 208.747L347.639 208.747L347.639 208.747L347.639 208.748L347.64 208.748L347.64 208.748L347.64 208.748L347.641 208.748L347.641 208.748L347.641 208.748L347.642 208.748L347.642 208.748L347.643 208.748L347.643 208.748L347.643 208.748L347.644 208.748L347.644 208.749L347.644 208.749L347.645 208.749L347.645 208.749L347.645 208.749L347.646 208.749L347.646 208.749L347.646 208.749L347.647 208.749L347.647 208.749L347.647 208.749L347.648 208.749L347.648 208.749L347.648 208.749L347.649 208.75L347.649 208.75L347.649 208.75L347.65 208.75L347.65 208.75L347.65 208.75L347.651 208.75L347.651 208.75L347.651 208.75L347.652 208.75L347.652 208.75L347.652 208.75L347.653 208.75L347.653 208.751L347.653 208.751L347.654 208.751L347.654 208.751L347.654 208.751L347.655 208.751L347.655 208.751L347.655 208.751L347.656 208.751L347.656 208.751L347.656 208.751L347.657 208.751L347.657 208.751L347.657 208.751L347.658 208.752L347.658 208.752L347.658 208.752L347.659 208.752L347.659 208.752L347.659 208.752L347.66 208.752L347.66 208.752L347.661 208.752L347.661 208.752L347.661 208.752L347.662 208.752L347.662 208.752L347.662 208.752L347.663 208.753L347.663 208.753L347.663 208.753L347.664 208.753L347.664 208.753L347.664 208.753L347.665 208.753L347.665 208.753L347.665 208.753L347.666 208.753L347.666 208.753L347.666 208.753L347.667 208.753L347.667 208.754L347.667 208.754L347.668 208.754L347.668 208.754L347.668 208.754L347.669 208.754L347.669 208.754L347.669 208.754L347.67 208.754L347.67 208.754L347.67 208.754L347.671 208.754L347.671 208.754L347.671 208.754L347.672 208.755L347.672 208.755L347.672 208.755L347.673 208.755L347.673 208.755L347.673 208.755L347.674 208.755L347.674 208.755L347.674 208.755L347.675 208.755L347.675 208.755L347.675 208.755L347.676 208.755L347.676 208.755L347.676 208.756L347.677 208.756L347.677 208.756L347.677 208.756L347.678 208.756L347.678 208.756L347.678 208.756L347.679 208.756L347.679 208.756L347.679 208.756L347.68 208.756L347.68 208.756L347.68 208.756L347.68 208.756L347.681 208.757L347.681 208.757L347.681 208.757L347.682 208.757L347.682 208.757L347.682 208.757L347.683 208.757L347.683 208.757L347.683 208.757L347.684 208.757L347.684 208.757L347.684 208.757L347.685 208.757L347.685 208.757L347.685 208.758L347.686 208.758L347.686 208.758L347.686 208.758L347.687 208.758L347.687 208.758L347.687 208.758L347.688 208.758L347.688 208.758L347.688 208.758L347.689 208.758L347.689 208.758L347.689 208.758L347.69 208.758L347.69 208.759L347.69 208.759L347.691 208.759L347.691 208.759L347.691 208.759L347.692 208.759L347.692 208.759L347.692 208.759L347.693 208.759L347.693 208.759L347.693 208.759L347.694 208.759L347.694 208.759L347.694 208.759L347.695 208.76L347.695 208.76L347.695 208.76L347.696 208.76L347.696 208.76L347.696 208.76L347.697 208.76L347.697 208.76L347.697 208.76L347.698 208.76L347.698 208.76L347.698 208.76L347.699 208.76L347.699 208.76L347.699 208.761L347.7 208.761L347.7 208.761L347.7 208.761L347.701 208.761L347.701 208.761L347.701 208.761L347.701 208.761L347.702 208.761L347.702 208.761L347.702 208.761L347.703 208.761L347.703 208.761L347.703 208.761L347.704 208.762L347.704 208.762L347.704 208.762L347.705 208.762L347.705 208.762L347.705 208.762L347.706 208.762L347.706 208.762L347.706 208.762L347.707 208.762L347.707 208.762L347.707 208.762L347.708 208.762L347.708 208.762L347.708 208.762L347.709 208.763L347.709 208.763L347.709 208.763L347.71 208.763L347.71 208.763L347.71 208.763L347.711 208.763L347.711 208.763L347.711 208.763L347.712 208.763L347.712 208.763L347.712 208.763L347.713 208.763L347.713 208.763L347.713 208.764L347.714 208.764L347.714 208.764L347.714 208.764L347.715 208.764L347.715 208.764L347.715 208.764L347.715 208.764L347.716 208.764L347.716 208.764L347.716 208.764L347.717 208.764L347.717 208.764L347.717 208.764L347.718 208.765L347.718 208.765L347.718 208.765L347.719 208.765L347.719 208.765L347.719 208.765L347.72 208.765L347.72 208.765L347.72 208.765L347.721 208.765L347.721 208.765L347.721 208.765L347.722 208.765L347.722 208.765L347.722 208.766L347.723 208.766L347.723 208.766L347.723 208.766L347.724 208.766L347.724 208.766L347.724 208.766L347.725 208.766L347.725 208.766L347.725 208.766L347.726 208.766L347.726 208.766L347.726 208.766L347.726 208.766L347.727 208.766L347.727 208.767L347.727 208.767L347.728 208.767L347.728 208.767L347.728 208.767L347.729 208.767L347.729 208.767L347.729 208.767L347.73 208.767L347.73 208.767L347.73 208.767L347.731 208.767L347.731 208.767L347.731 208.767L347.732 208.768L347.732 208.768L347.732 208.768L347.733 208.768L347.733 208.768L347.733 208.768L347.734 208.768L347.734 208.768L347.734 208.768L347.735 208.768L347.735 208.768L347.735 208.768L347.736 208.768L347.736 208.768L347.736 208.769L347.737 208.769L347.737 208.769L347.737 208.769L347.737 208.769L347.738 208.769L347.738 208.769C349.51 209.153 351.283 209.536 353.055 209.922L353.055 209.922M347.562 208.731L353.055 209.922M353.055 209.922C353.1 209.932 353.13 209.943 353.149 209.952M353.055 209.922L353.149 209.952M353.149 209.952C353.144 209.98 353.128 210.024 353.106 210.055L353.105 210.057C352.054 211.554 350.997 213.047 349.94 214.541C349.798 214.74 349.657 214.94 349.516 215.139L349.516 215.14C347.69 217.722 345.864 220.304 344.039 222.885L344.018 222.915L344.016 222.917C343.98 222.969 343.952 222.994 343.936 223.007C343.932 223.004 343.93 223.002 343.93 223.001C343.928 223 343.928 222.999 343.927 222.998C343.927 222.998 343.926 222.996 343.926 222.993C343.926 222.99 343.925 222.985 343.926 222.978C343.929 222.962 343.931 222.95 343.936 222.929C343.94 222.914 343.944 222.894 343.951 222.865L343.954 222.852L343.956 222.839L343.959 222.825L343.962 222.812L343.965 222.799L343.968 222.786L343.971 222.773L343.973 222.76L343.976 222.746L343.979 222.733L343.982 222.72L343.985 222.707L343.988 222.694L343.991 222.681L343.993 222.667L343.996 222.654L343.999 222.641L344.002 222.628L344.005 222.615L344.008 222.602L344.011 222.588L344.013 222.575L344.016 222.562L344.019 222.549L344.022 222.536L344.025 222.523L344.028 222.509L344.031 222.496L344.033 222.483L344.036 222.47L344.039 222.457L344.042 222.444L344.045 222.43L344.048 222.417L344.05 222.404L344.053 222.391L344.056 222.378L344.059 222.365L344.062 222.351L344.065 222.338L344.068 222.325L344.07 222.312L344.073 222.299L344.076 222.286L344.079 222.272L344.082 222.259L344.085 222.246L344.088 222.233L344.09 222.22L344.093 222.206L344.096 222.193L344.099 222.18L344.102 222.167L344.105 222.154L344.107 222.141L344.11 222.127L344.113 222.114L344.116 222.101L344.119 222.088L344.122 222.075L344.125 222.062L344.127 222.048L344.13 222.035L344.133 222.022L344.136 222.009L344.139 221.996L344.142 221.983L344.145 221.969L344.147 221.956L344.15 221.943L344.153 221.93L344.156 221.917L344.159 221.904L344.162 221.89L344.165 221.877L344.167 221.864L344.17 221.851L344.173 221.838L344.176 221.825L344.179 221.811L344.182 221.798L344.184 221.785L344.187 221.772L344.19 221.759L344.193 221.746L344.196 221.732L344.199 221.719L344.202 221.706L344.204 221.693L344.207 221.68L344.21 221.667L344.213 221.653L344.216 221.64L344.219 221.627L344.222 221.614L344.224 221.601L344.227 221.588L344.23 221.574L344.233 221.561L344.236 221.548L344.239 221.535L344.241 221.522L344.244 221.509L344.247 221.495L344.25 221.482L344.253 221.469L344.256 221.456L344.259 221.443L344.261 221.43L344.264 221.416L344.267 221.403L344.27 221.39L344.273 221.377L344.276 221.364L344.279 221.351L344.281 221.337L344.284 221.324L344.287 221.311L344.29 221.298L344.293 221.285L344.296 221.272L344.298 221.258L344.301 221.245L344.304 221.232L344.307 221.219L344.31 221.206L344.313 221.193L344.316 221.179L344.318 221.166L344.321 221.153L344.324 221.14L344.327 221.127L344.33 221.114L344.333 221.1L344.336 221.087L344.338 221.074L344.341 221.061L344.344 221.048L344.347 221.035L344.35 221.021L344.353 221.008L344.356 220.995L344.358 220.982L344.361 220.969L344.364 220.956L344.367 220.942L344.37 220.929L344.373 220.916L344.375 220.903L344.378 220.89L344.381 220.877L344.384 220.863L344.387 220.85L344.39 220.837L344.393 220.824L344.395 220.811L344.398 220.798L344.401 220.784L344.404 220.771L344.407 220.758L344.41 220.745L344.413 220.732L344.415 220.719L344.418 220.705L344.421 220.692L344.424 220.679L344.427 220.666L344.43 220.653L344.432 220.64L344.435 220.626L344.438 220.613L344.441 220.6L344.444 220.587L344.447 220.574L344.45 220.561L344.452 220.547L344.455 220.534L344.458 220.521L344.461 220.508L344.464 220.495L344.467 220.482L344.47 220.468L344.472 220.455L344.475 220.442L344.478 220.429L344.481 220.416L344.484 220.403L344.487 220.389L344.49 220.376L344.492 220.363L344.495 220.35L344.498 220.337L344.501 220.324L344.504 220.31L344.507 220.297L344.509 220.284L344.512 220.271L344.515 220.258L344.518 220.245L344.521 220.231L344.524 220.218L344.527 220.205L344.529 220.192L344.532 220.179L344.535 220.166L344.538 220.152L344.541 220.139L344.544 220.126L344.547 220.113L344.549 220.1L344.552 220.087L344.555 220.073L344.558 220.06L344.561 220.047L344.564 220.034L344.566 220.021L344.569 220.008L344.572 219.994L344.575 219.981L344.578 219.968L344.581 219.955L344.584 219.942L344.586 219.928L344.589 219.915L344.592 219.902L344.595 219.889L344.598 219.876L344.601 219.863L344.604 219.849L344.606 219.836L344.609 219.823L344.612 219.81L344.615 219.797L344.618 219.784L344.621 219.77L344.624 219.757L344.626 219.744L344.629 219.731L344.632 219.718L344.635 219.705L344.638 219.691L344.641 219.678L344.643 219.665L344.646 219.652L344.649 219.639L344.652 219.626L344.655 219.612L344.658 219.599L344.661 219.586L344.663 219.573L344.666 219.56L344.669 219.547L344.672 219.533L344.675 219.52L344.678 219.507L344.681 219.494L344.683 219.481L344.686 219.468L344.689 219.454L344.692 219.441L344.695 219.428L344.698 219.415L344.7 219.402L344.703 219.389L344.706 219.375L344.709 219.362L344.712 219.349L344.715 219.336L344.718 219.323L344.72 219.31L344.723 219.296L344.726 219.283L344.729 219.27L344.732 219.257L344.735 219.244L344.738 219.231L344.74 219.217L344.743 219.204L344.746 219.191L344.749 219.178L344.752 219.165L344.755 219.152L344.758 219.138L344.76 219.125L344.763 219.112L344.766 219.099L344.769 219.086L344.772 219.073L344.775 219.059L344.777 219.046L344.78 219.033L344.783 219.02L344.786 219.007L344.789 218.994L344.792 218.98L344.795 218.967L344.797 218.954L344.8 218.941L344.803 218.928L344.806 218.915L344.809 218.901L344.812 218.888L344.815 218.875L344.817 218.862L344.82 218.849L344.823 218.836L344.826 218.822L344.829 218.809L344.832 218.796L344.834 218.783L344.837 218.77L344.84 218.757L344.843 218.743L344.846 218.73L344.849 218.717L344.852 218.704L344.854 218.691L344.857 218.678L344.86 218.664L344.863 218.651L344.866 218.638L344.869 218.625L344.872 218.612L344.874 218.599L344.877 218.585L344.88 218.572L344.883 218.559L344.886 218.546L344.889 218.533L344.892 218.52L344.894 218.506L344.897 218.493L344.9 218.48L344.903 218.467L344.906 218.454L344.909 218.441L344.911 218.427L344.914 218.414L344.917 218.401L344.92 218.388L344.923 218.375L344.926 218.362L344.929 218.348L344.931 218.335L344.934 218.322L344.937 218.309L344.94 218.296L344.943 218.283L344.946 218.269L344.949 218.256L344.951 218.243L344.954 218.23L344.957 218.217L344.96 218.204L344.963 218.19L344.966 218.177L344.968 218.164L344.971 218.151L344.974 218.138L344.977 218.125L344.98 218.111L344.983 218.098L344.986 218.085L344.988 218.072L344.991 218.059L344.994 218.046L344.997 218.032L345 218.019L345.003 218.006L345.006 217.993L345.008 217.98L345.011 217.967L345.014 217.953L345.017 217.94L345.02 217.927L345.023 217.914L345.026 217.901L345.028 217.888L345.031 217.874L345.034 217.861L345.037 217.848L345.04 217.835L345.043 217.822L345.045 217.809L345.048 217.795L345.051 217.782L345.054 217.769L345.057 217.756L345.06 217.743L345.063 217.73L345.065 217.716L345.068 217.703L345.071 217.69L345.074 217.677L345.077 217.664L345.08 217.65L345.083 217.637L345.085 217.624L345.088 217.611L345.091 217.598L345.094 217.585L345.097 217.571L345.1 217.558L345.102 217.545L345.105 217.532L345.108 217.519L345.111 217.506L345.114 217.492L345.117 217.479L345.12 217.466L345.122 217.453L345.125 217.44L345.128 217.427L345.131 217.413L345.134 217.4L345.137 217.387L345.14 217.374L345.142 217.361L345.145 217.348L345.148 217.334L345.151 217.321L345.154 217.308L345.157 217.295L345.159 217.282L345.162 217.269L345.165 217.255L345.168 217.242L345.171 217.229L345.174 217.216L345.177 217.203L345.179 217.19L345.182 217.176L345.185 217.163L345.188 217.15L345.191 217.137L345.194 217.124L345.197 217.111L345.199 217.097L345.202 217.084L345.205 217.071L345.208 217.058L345.211 217.045L345.214 217.032L345.217 217.018L345.219 217.005L345.222 216.992L345.225 216.979L345.228 216.966L345.231 216.953L345.234 216.939L345.236 216.926L345.239 216.913L345.242 216.9L345.245 216.887L345.248 216.874L345.251 216.86L345.254 216.847L345.256 216.834L345.259 216.821L345.262 216.808L345.265 216.795L345.268 216.781L345.271 216.768L345.274 216.755L345.276 216.742L345.279 216.729L345.282 216.716L345.285 216.702L345.288 216.689L345.291 216.676L345.293 216.663L345.296 216.65L345.299 216.637L345.302 216.623L345.305 216.61L345.308 216.597L345.311 216.584L345.313 216.571L345.316 216.558L345.319 216.544L345.322 216.531L345.325 216.518L345.328 216.505L345.331 216.492L345.333 216.479L345.336 216.465L345.339 216.452L345.342 216.439L345.345 216.426L345.348 216.413L345.351 216.4L345.353 216.386L345.356 216.373L345.359 216.36L345.362 216.347L345.365 216.334L345.368 216.321L345.37 216.307L345.373 216.294L345.376 216.281L345.379 216.268L345.382 216.255L345.385 216.242L345.388 216.228L345.39 216.215L345.393 216.202L345.396 216.189L345.399 216.176L345.402 216.163L345.405 216.149L345.408 216.136L345.41 216.123L353.149 209.952Z" fill="#C6C6C6" fill-opacity="0.5" stroke="#5A5A5A"/>
</g>
<g id="dead_powerwall">
<path id="Vector_24" d="M179.433 363.62L196.861 398.82L195.572 401.496L178.144 366.295L179.433 363.62Z" fill="#C6C6C6" fill-opacity="0.5"/>
<path id="Vector_25" d="M196.198 401.991L197.539 399.207L220.718 399.083L219.376 401.867L196.198 401.991Z" fill="#C6C6C6" fill-opacity="0.5"/>
<path id="Vector_26" d="M220.714 398.304L197.536 398.427L180.055 363.118L203.233 362.995L220.714 398.304Z" fill="#C6C6C6" fill-opacity="0.5"/>
</g>
</g>
<path id="Solar" d="M187.205 11.2466C185.999 10.8999 185.12 10.4751 184.568 9.97217C184.021 9.46436 183.748 8.83936 183.748 8.09717C183.748 7.25732 184.082 6.56396 184.751 6.01709C185.425 5.46533 186.299 5.18945 187.373 5.18945C188.105 5.18945 188.757 5.33105 189.329 5.61426C189.905 5.89746 190.349 6.28809 190.662 6.78613C190.979 7.28418 191.138 7.82861 191.138 8.41943H189.724C189.724 7.7749 189.519 7.26953 189.109 6.90332C188.699 6.53223 188.12 6.34668 187.373 6.34668C186.68 6.34668 186.138 6.50049 185.747 6.80811C185.361 7.11084 185.168 7.5332 185.168 8.0752C185.168 8.50977 185.352 8.87842 185.718 9.18115C186.089 9.479 186.716 9.75244 187.6 10.0015C188.489 10.2505 189.182 10.5264 189.68 10.8291C190.183 11.127 190.554 11.4761 190.793 11.8765C191.038 12.2769 191.16 12.748 191.16 13.29C191.16 14.1543 190.823 14.8477 190.149 15.3701C189.475 15.8877 188.574 16.1465 187.446 16.1465C186.714 16.1465 186.03 16.0073 185.396 15.729C184.761 15.4458 184.27 15.0601 183.923 14.5718C183.582 14.0835 183.411 13.5293 183.411 12.9092H184.824C184.824 13.5537 185.061 14.064 185.535 14.4399C186.013 14.811 186.65 14.9966 187.446 14.9966C188.188 14.9966 188.757 14.8452 189.153 14.5425C189.548 14.2397 189.746 13.8271 189.746 13.3047C189.746 12.7822 189.563 12.3794 189.197 12.0962C188.831 11.8081 188.167 11.5249 187.205 11.2466ZM192.397 11.9644C192.397 11.188 192.549 10.4897 192.852 9.86963C193.159 9.24951 193.584 8.771 194.126 8.43408C194.673 8.09717 195.295 7.92871 195.994 7.92871C197.073 7.92871 197.944 8.30225 198.608 9.04932C199.277 9.79639 199.612 10.79 199.612 12.0303V12.1255C199.612 12.897 199.463 13.5903 199.165 14.2056C198.872 14.8159 198.45 15.292 197.898 15.6338C197.351 15.9756 196.721 16.1465 196.008 16.1465C194.934 16.1465 194.062 15.7729 193.394 15.0259C192.729 14.2788 192.397 13.29 192.397 12.0596V11.9644ZM193.76 12.1255C193.76 13.0044 193.962 13.71 194.368 14.2422C194.778 14.7744 195.325 15.0405 196.008 15.0405C196.697 15.0405 197.244 14.772 197.649 14.2349C198.054 13.6929 198.257 12.936 198.257 11.9644C198.257 11.0952 198.049 10.3921 197.634 9.85498C197.224 9.31299 196.677 9.04199 195.994 9.04199C195.325 9.04199 194.785 9.30811 194.375 9.84033C193.965 10.3726 193.76 11.1343 193.76 12.1255ZM202.783 16H201.428V4.75H202.783V16ZM209.851 16C209.773 15.8438 209.709 15.5654 209.661 15.165C209.031 15.8193 208.279 16.1465 207.405 16.1465C206.624 16.1465 205.981 15.9268 205.479 15.4873C204.98 15.043 204.731 14.4814 204.731 13.8027C204.731 12.9775 205.044 12.3379 205.669 11.8838C206.299 11.4248 207.183 11.1953 208.32 11.1953H209.639V10.5728C209.639 10.0991 209.497 9.72314 209.214 9.44482C208.931 9.16162 208.513 9.02002 207.961 9.02002C207.478 9.02002 207.073 9.14209 206.746 9.38623C206.418 9.63037 206.255 9.92578 206.255 10.2725H204.893C204.893 9.87695 205.032 9.49609 205.31 9.12988C205.593 8.75879 205.974 8.46582 206.453 8.25098C206.936 8.03613 207.466 7.92871 208.042 7.92871C208.955 7.92871 209.67 8.1582 210.188 8.61719C210.706 9.07129 210.974 9.69873 210.994 10.4995V14.147C210.994 14.8745 211.086 15.4531 211.272 15.8828V16H209.851ZM207.603 14.9673C208.027 14.9673 208.43 14.8574 208.811 14.6377C209.192 14.418 209.468 14.1323 209.639 13.7808V12.1548H208.577C206.917 12.1548 206.086 12.6406 206.086 13.6123C206.086 14.0371 206.228 14.3691 206.511 14.6084C206.794 14.8477 207.158 14.9673 207.603 14.9673ZM216.948 9.29102C216.743 9.25684 216.521 9.23975 216.282 9.23975C215.393 9.23975 214.79 9.61816 214.473 10.375V16H213.118V8.0752H214.436L214.458 8.99072C214.902 8.28271 215.532 7.92871 216.348 7.92871C216.611 7.92871 216.812 7.96289 216.948 8.03125V9.29102Z" fill="#EAEAEA" fill-opacity="0.7"/>
<path id="Grid" d="M48.4004 300.601C48.0391 301.119 47.5337 301.507 46.8843 301.766C46.2397 302.02 45.4878 302.146 44.6284 302.146C43.7593 302.146 42.9878 301.944 42.314 301.539C41.6401 301.128 41.1177 300.547 40.7466 299.795C40.3804 299.043 40.1924 298.172 40.1826 297.181V296.25C40.1826 294.644 40.5562 293.399 41.3032 292.515C42.0552 291.631 43.1099 291.189 44.4673 291.189C45.5806 291.189 46.4766 291.475 47.1553 292.046C47.834 292.613 48.249 293.418 48.4004 294.463H46.9941C46.7305 293.052 45.8906 292.347 44.4746 292.347C43.5322 292.347 42.8169 292.679 42.3286 293.343C41.8452 294.002 41.6011 294.959 41.5962 296.214V297.085C41.5962 298.282 41.8696 299.234 42.4165 299.942C42.9634 300.645 43.7031 300.997 44.6357 300.997C45.1631 300.997 45.6245 300.938 46.02 300.821C46.4155 300.704 46.7427 300.506 47.0015 300.228V297.833H44.5332V296.69H48.4004V300.601ZM54.3696 295.291C54.1646 295.257 53.9424 295.24 53.7031 295.24C52.8145 295.24 52.2114 295.618 51.894 296.375V302H50.5391V294.075H51.8574L51.8794 294.991C52.3237 294.283 52.9536 293.929 53.769 293.929C54.0327 293.929 54.2329 293.963 54.3696 294.031V295.291ZM57.0942 302H55.7393V294.075H57.0942V302ZM55.6294 291.973C55.6294 291.753 55.6953 291.568 55.8271 291.417C55.9639 291.265 56.1641 291.189 56.4277 291.189C56.6914 291.189 56.8916 291.265 57.0283 291.417C57.165 291.568 57.2334 291.753 57.2334 291.973C57.2334 292.193 57.165 292.376 57.0283 292.522C56.8916 292.669 56.6914 292.742 56.4277 292.742C56.1641 292.742 55.9639 292.669 55.8271 292.522C55.6953 292.376 55.6294 292.193 55.6294 291.973ZM58.9399 297.972C58.9399 296.756 59.228 295.779 59.8042 295.042C60.3804 294.3 61.1348 293.929 62.0674 293.929C62.9951 293.929 63.73 294.246 64.272 294.881V290.75H65.627V302H64.3818L64.3159 301.15C63.7739 301.814 63.0195 302.146 62.0527 302.146C61.1348 302.146 60.3853 301.771 59.8042 301.019C59.228 300.267 58.9399 299.285 58.9399 298.074V297.972ZM60.2949 298.125C60.2949 299.024 60.4805 299.727 60.8516 300.235C61.2227 300.743 61.7354 300.997 62.3896 300.997C63.249 300.997 63.8765 300.611 64.272 299.839V296.199C63.8667 295.452 63.2441 295.079 62.4043 295.079C61.7402 295.079 61.2227 295.335 60.8516 295.848C60.4805 296.36 60.2949 297.12 60.2949 298.125Z" fill="#EAEAEA" fill-opacity="0.7"/>
<path id="Home" d="M334.755 302H333.342V297.071H327.966V302H326.56V291.336H327.966V295.921H333.342V291.336H334.755V302ZM336.682 297.964C336.682 297.188 336.833 296.49 337.136 295.87C337.443 295.25 337.868 294.771 338.41 294.434C338.957 294.097 339.58 293.929 340.278 293.929C341.357 293.929 342.229 294.302 342.893 295.049C343.562 295.796 343.896 296.79 343.896 298.03V298.125C343.896 298.897 343.747 299.59 343.449 300.206C343.156 300.816 342.734 301.292 342.182 301.634C341.635 301.976 341.005 302.146 340.292 302.146C339.218 302.146 338.347 301.773 337.678 301.026C337.014 300.279 336.682 299.29 336.682 298.06V297.964ZM338.044 298.125C338.044 299.004 338.247 299.71 338.652 300.242C339.062 300.774 339.609 301.041 340.292 301.041C340.981 301.041 341.528 300.772 341.933 300.235C342.338 299.693 342.541 298.936 342.541 297.964C342.541 297.095 342.333 296.392 341.918 295.855C341.508 295.313 340.961 295.042 340.278 295.042C339.609 295.042 339.069 295.308 338.659 295.84C338.249 296.373 338.044 297.134 338.044 298.125ZM346.87 294.075L346.906 294.954C347.487 294.271 348.271 293.929 349.257 293.929C350.366 293.929 351.12 294.354 351.521 295.203C351.784 294.822 352.126 294.515 352.546 294.28C352.971 294.046 353.471 293.929 354.047 293.929C355.786 293.929 356.669 294.849 356.699 296.69V302H355.344V296.771C355.344 296.204 355.214 295.782 354.956 295.503C354.697 295.22 354.262 295.079 353.652 295.079C353.149 295.079 352.731 295.23 352.399 295.533C352.067 295.831 351.875 296.233 351.821 296.741V302H350.458V296.807C350.458 295.655 349.895 295.079 348.767 295.079C347.878 295.079 347.27 295.457 346.943 296.214V302H345.588V294.075H346.87ZM362.038 302.146C360.964 302.146 360.09 301.795 359.416 301.092C358.742 300.384 358.405 299.439 358.405 298.257V298.008C358.405 297.222 358.554 296.521 358.852 295.906C359.155 295.286 359.575 294.803 360.112 294.456C360.654 294.104 361.24 293.929 361.87 293.929C362.9 293.929 363.701 294.268 364.272 294.947C364.843 295.625 365.129 296.597 365.129 297.862V298.426H359.76C359.78 299.207 360.007 299.839 360.441 300.323C360.881 300.801 361.438 301.041 362.111 301.041C362.59 301.041 362.995 300.943 363.327 300.748C363.659 300.552 363.95 300.293 364.199 299.971L365.026 300.616C364.362 301.636 363.366 302.146 362.038 302.146ZM361.87 295.042C361.323 295.042 360.864 295.242 360.493 295.643C360.122 296.038 359.892 296.595 359.804 297.312H363.774V297.21C363.735 296.521 363.549 295.989 363.217 295.613C362.885 295.232 362.436 295.042 361.87 295.042Z" fill="#EAEAEA" fill-opacity="0.7"/>
<path id="Powerwall" d="M167.596 460.825V465H166.189V454.336H170.123C171.29 454.336 172.203 454.634 172.862 455.229C173.526 455.825 173.858 456.614 173.858 457.595C173.858 458.63 173.533 459.429 172.884 459.99C172.239 460.547 171.314 460.825 170.108 460.825H167.596ZM167.596 459.675H170.123C170.875 459.675 171.451 459.5 171.851 459.148C172.251 458.792 172.452 458.279 172.452 457.61C172.452 456.975 172.251 456.467 171.851 456.086C171.451 455.706 170.901 455.508 170.203 455.493H167.596V459.675ZM174.979 460.964C174.979 460.188 175.13 459.49 175.433 458.87C175.74 458.25 176.165 457.771 176.707 457.434C177.254 457.097 177.876 456.929 178.575 456.929C179.654 456.929 180.525 457.302 181.189 458.049C181.858 458.796 182.193 459.79 182.193 461.03V461.125C182.193 461.897 182.044 462.59 181.746 463.206C181.453 463.816 181.031 464.292 180.479 464.634C179.932 464.976 179.302 465.146 178.589 465.146C177.515 465.146 176.644 464.773 175.975 464.026C175.311 463.279 174.979 462.29 174.979 461.06V460.964ZM176.341 461.125C176.341 462.004 176.543 462.71 176.949 463.242C177.359 463.774 177.906 464.041 178.589 464.041C179.278 464.041 179.825 463.772 180.23 463.235C180.635 462.693 180.838 461.936 180.838 460.964C180.838 460.095 180.63 459.392 180.215 458.855C179.805 458.313 179.258 458.042 178.575 458.042C177.906 458.042 177.366 458.308 176.956 458.84C176.546 459.373 176.341 460.134 176.341 461.125ZM190.909 463.132L192.432 457.075H193.787L191.48 465H190.381L188.455 458.994L186.58 465H185.481L183.182 457.075H184.529L186.089 463.008L187.935 457.075H189.026L190.909 463.132ZM198.46 465.146C197.386 465.146 196.512 464.795 195.838 464.092C195.164 463.384 194.827 462.439 194.827 461.257V461.008C194.827 460.222 194.976 459.521 195.274 458.906C195.577 458.286 195.997 457.803 196.534 457.456C197.076 457.104 197.662 456.929 198.292 456.929C199.322 456.929 200.123 457.268 200.694 457.947C201.265 458.625 201.551 459.597 201.551 460.862V461.426H196.182C196.202 462.207 196.429 462.839 196.863 463.323C197.303 463.801 197.859 464.041 198.533 464.041C199.012 464.041 199.417 463.943 199.749 463.748C200.081 463.552 200.372 463.293 200.621 462.971L201.448 463.616C200.784 464.636 199.788 465.146 198.46 465.146ZM198.292 458.042C197.745 458.042 197.286 458.242 196.915 458.643C196.543 459.038 196.314 459.595 196.226 460.312H200.196V460.21C200.157 459.521 199.971 458.989 199.639 458.613C199.307 458.232 198.858 458.042 198.292 458.042ZM206.956 458.291C206.751 458.257 206.529 458.24 206.29 458.24C205.401 458.24 204.798 458.618 204.48 459.375V465H203.125V457.075H204.444L204.466 457.991C204.91 457.283 205.54 456.929 206.355 456.929C206.619 456.929 206.819 456.963 206.956 457.031V458.291ZM215.357 463.132L216.88 457.075H218.235L215.928 465H214.83L212.903 458.994L211.028 465H209.93L207.63 457.075H208.978L210.538 463.008L212.383 457.075H213.475L215.357 463.132ZM224.512 465C224.434 464.844 224.371 464.565 224.322 464.165C223.692 464.819 222.94 465.146 222.066 465.146C221.285 465.146 220.643 464.927 220.14 464.487C219.642 464.043 219.393 463.481 219.393 462.803C219.393 461.978 219.705 461.338 220.33 460.884C220.96 460.425 221.844 460.195 222.981 460.195H224.3V459.573C224.3 459.099 224.158 458.723 223.875 458.445C223.592 458.162 223.174 458.02 222.623 458.02C222.139 458.02 221.734 458.142 221.407 458.386C221.08 458.63 220.916 458.926 220.916 459.272H219.554C219.554 458.877 219.693 458.496 219.971 458.13C220.254 457.759 220.635 457.466 221.114 457.251C221.597 457.036 222.127 456.929 222.703 456.929C223.616 456.929 224.332 457.158 224.849 457.617C225.367 458.071 225.635 458.699 225.655 459.5V463.147C225.655 463.875 225.748 464.453 225.933 464.883V465H224.512ZM222.264 463.967C222.688 463.967 223.091 463.857 223.472 463.638C223.853 463.418 224.129 463.132 224.3 462.781V461.155H223.238C221.578 461.155 220.748 461.641 220.748 462.612C220.748 463.037 220.889 463.369 221.172 463.608C221.456 463.848 221.819 463.967 222.264 463.967ZM229.251 465H227.896V453.75H229.251V465ZM232.898 465H231.543V453.75H232.898V465Z" fill="#EAEAEA" fill-opacity="0.7"/>
</g>
<defs>
<linearGradient id="paint0_linear" x1="197" y1="113.667" x2="96.4172" y2="220.821" gradientUnits="userSpaceOnUse">
<stop stop-color="#FFE600"/>
<stop offset="0.479167" stop-color="#FFD601" stop-opacity="0.991521"/>
<stop offset="1" stop-color="#FF0505" stop-opacity="0.952119"/>
</linearGradient>
<linearGradient id="paint1_linear" x1="210.311" y1="127" x2="298.445" y2="218.235" gradientUnits="userSpaceOnUse">
<stop stop-color="#FFF500"/>
<stop offset="0.9999" stop-color="#0085FF" stop-opacity="0.916667"/>
</linearGradient>
<linearGradient id="paint2_linear" x1="103" y1="233" x2="211.655" y2="325.851" gradientUnits="userSpaceOnUse">
<stop stop-color="#FF0000"/>
<stop offset="1" stop-color="#14FF00"/>
</linearGradient>
<linearGradient id="paint3_linear" x1="203" y1="343" x2="311.655" y2="250.149" gradientUnits="userSpaceOnUse">
<stop stop-color="#05FF00"/>
<stop offset="1" stop-color="#0085FF" stop-opacity="0.970676"/>
</linearGradient>
<linearGradient id="paint4_linear" x1="200.5" y1="127" x2="200.5" y2="343" gradientUnits="userSpaceOnUse">
<stop stop-color="#FFE600"/>
<stop offset="0.505208" stop-color="#D8E902"/>
<stop offset="1" stop-color="#24FF00"/>
</linearGradient>
<linearGradient id="paint5_linear" x1="103" y1="230" x2="297" y2="229.462" gradientUnits="userSpaceOnUse">
<stop stop-color="#FF0000"/>
<stop offset="1" stop-color="#0094FF"/>
</linearGradient>
</defs>
</svg>
